/* XPM */
static char *out[] = {
/* columns rows colors chars-per-pixel */
"64 64 256 2 ",
"   c #060706",
".  c #080707",
"X  c #0C0C0B",
"o  c #130E0C",
"O  c #1B0F0E",
"+  c #0E100F",
"@  c #11110E",
"#  c #1E180D",
"$  c #070A11",
"%  c #0C0D12",
"&  c #0C0E1A",
"*  c #120E12",
"=  c #0E1113",
"-  c #0D121A",
";  c #131414",
":  c #161915",
">  c #1A1916",
",  c #14141A",
"<  c #1A1618",
"1  c #15191B",
"2  c #1B1B1C",
"3  c #27100F",
"4  c #2C0E12",
"5  c #241818",
"6  c #391517",
"7  c #1C2113",
"8  c #1E201E",
"9  c #272F13",
"0  c #2A241C",
"q  c #362719",
"w  c #0D1322",
"e  c #0E102C",
"r  c #141623",
"t  c #171626",
"y  c #141A24",
"u  c #1C1C23",
"i  c #151B2B",
"p  c #1B1D2B",
"a  c #151B32",
"s  c #1B1E33",
"d  c #151B39",
"f  c #221E24",
"g  c #251B28",
"h  c #351A25",
"j  c #291C37",
"k  c #381B37",
"l  c #172527",
"z  c #1E2224",
"x  c #1C222C",
"c  c #1D2333",
"v  c #1C233B",
"b  c #182738",
"n  c #1B3539",
"m  c #222325",
"M  c #2B2425",
"N  c #202926",
"B  c #23242A",
"V  c #2B252B",
"C  c #25292C",
"Z  c #2A2A2D",
"A  c #362929",
"S  c #2F3329",
"D  c #232433",
"F  c #2A2634",
"G  c #252B33",
"H  c #2A2C33",
"J  c #23243B",
"K  c #242B3B",
"L  c #2C2D3A",
"P  c #352D36",
"I  c #2D3234",
"U  c #273638",
"Y  c #2C323B",
"T  c #333335",
"R  c #33333B",
"E  c #3A3438",
"W  c #333A3C",
"Q  c #3B393C",
"!  c #501416",
"~  c #700E0F",
"^  c #552E1A",
"/  c #6E381E",
"(  c #471D24",
")  c #482627",
"_  c #512F2D",
"`  c #473839",
"'  c #573736",
"]  c #6D282F",
"[  c #3A481A",
"{  c #374737",
"}  c #4F4D1A",
"|  c #45581B",
" . c #4B621D",
".. c #526A1C",
"X. c #5A741D",
"o. c #6F641C",
"O. c #4B4E31",
"+. c #6C4D36",
"@. c #546D23",
"#. c #627622",
"$. c #151947",
"%. c #141958",
"&. c #2B1D4E",
"*. c #1A2747",
"=. c #1B354A",
"-. c #1A2954",
";. c #1B3557",
":. c #242A43",
">. c #262A46",
",. c #362A4C",
"<. c #2C3242",
"1. c #2B3748",
"2. c #333542",
"3. c #343A43",
"4. c #3B3C44",
"5. c #343448",
"6. c #353C4B",
"7. c #3A3D4B",
"8. c #242857",
"9. c #2A3757",
"0. c #363C57",
"q. c #1C2664",
"w. c #1A3866",
"e. c #1B247A",
"r. c #1A3C74",
"t. c #242C64",
"y. c #36246E",
"u. c #283669",
"i. c #343B67",
"p. c #273677",
"a. c #473B45",
"s. c #553A44",
"d. c #503A58",
"f. c #6B364A",
"g. c #43217E",
"h. c #783E70",
"j. c #1D424A",
"k. c #1E4554",
"l. c #27434A",
"z. c #3B4245",
"x. c #344548",
"c. c #3B444C",
"v. c #3D4B4C",
"b. c #2B4557",
"n. c #3C4353",
"m. c #3A4857",
"M. c #305453",
"N. c #306551",
"B. c #1D4368",
"V. c #1C4576",
"C. c #1E517D",
"Z. c #274666",
"A. c #3C4566",
"S. c #255868",
"D. c #374777",
"F. c #305074",
"G. c #1D6272",
"H. c #226577",
"J. c #347074",
"K. c #434245",
"L. c #45464A",
"P. c #564547",
"I. c #434B55",
"U. c #464856",
"Y. c #434C5C",
"T. c #584858",
"R. c #475253",
"E. c #5A535D",
"W. c #684D51",
"Q. c #46684E",
"!. c #464C62",
"~. c #554D64",
"^. c #4B5569",
"/. c #565966",
"(. c #535B6B",
"). c #495975",
"_. c #555D76",
"`. c #68556B",
"'. c #576170",
"]. c #596577",
"[. c #656571",
"{. c #636978",
"}. c #8F0E0E",
"|. c #871A1A",
" X c #A60707",
".X c #B80809",
"XX c #AE1215",
"oX c #82361F",
"OX c #941B23",
"+X c #B11B23",
"@X c #962426",
"#X c #8F2A32",
"$X c #B3252D",
"%X c #D80809",
"&X c #DD0B0B",
"*X c #CC0F12",
"=X c #EE0404",
"-X c #E40909",
";X c #E30C0D",
":X c #F30303",
">X c #FE0000",
",X c #F10C0F",
"<X c #E3110E",
"1X c #CF1F24",
"2X c #CC2A35",
"3X c #965417",
"4X c #8E2E46",
"5X c #C33144",
"6X c #935C4A",
"7X c #CF4753",
"8X c #63841E",
"9X c #698A21",
"0X c #719324",
"qX c #1D2A8E",
"wX c #2C328E",
"eX c #243BB1",
"rX c #4B1E8C",
"tX c #4C2291",
"yX c #5821A3",
"uX c #1A4A85",
"iX c #1D5596",
"pX c #294E8F",
"aX c #364A87",
"sX c #3B5888",
"dX c #1D708B",
"fX c #286E8D",
"gX c #1E5FA7",
"hX c #235CA5",
"jX c #3550A7",
"kX c #2462AD",
"lX c #266AB8",
"zX c #465685",
"xX c #4F5B8F",
"cX c #7A5380",
"vX c #5A6887",
"bX c #536E8F",
"nX c #566997",
"mX c #656E85",
"MX c #667489",
"NX c #667796",
"BX c #6B7393",
"VX c #526EA6",
"CX c #687AA4",
"ZX c #667FB7",
"AX c #2846C5",
"SX c #2C75CC",
"DX c #92738D",
"FX c #77839A",
"GX c #7586A9",
"HX c #748AB1",
"JX c #798DBA",
"KX c #7997C5",
"LX c #8491AE",
"PX c #8499C5",
"IX c #95A7C8",
"UX c #A1AFC8",
/* pixels */
"z ; X X y =.w.*.w + : G 6.n.m.K : @ @ Y (.).6.B < > 0 3.!.U.T 8 2 C x.x.x.I 5 : 2 m A P V 2 = X ; d w.;.b $ X @ f a.a.k ; X X u ",
"2 X X X b k.B.;.- X , G 9.9.9.G 2 @ @ 2.vXmX^.Y > 2 B n._.^.R 5 2 N 1.l.1.n u : z H 0.0.2.x ; o = b w.u.=.w % X y d._.7.g X X > ",
": X X = *.B.V.;.y = + i =.9.=.c , + : c.vXBX_.n.x m T Y.).!.2.> > 0 3.n.1.N 2 : < x 8.u.8.g % o + c ;.r.;.i @ X , ,.d.,.1 . X ; ",
"X X + - =.V.B.*.- = = n w.;.*., @ o : Y 7.!.d.Y 8 5 T 0.!.0.L > > 2 G 7.c.Y 2 ; ; r >.t.-.a + + + y -.-.-.l + X ; g k t + X X X ",
"o X X y =.B.;.y + + - ;.B.=.l , @ @ @ 7 N M 0 5 > > u >.u.8.*.f > > 2 V 7.n.H < , t 8.q.-.p + ; , b -.-.*.r % X , 2.d.L < X X X ",
"+ X + y ;.V.*.r + + 1 k.B.;.i = @ ; q _ _ ) 0 > : : j 8.t.8.J u 2 > G n.!.m.H : : p 8.q.q.d + * , d -.j a + X X ; K 6.P f + X X ",
"X X @ l =.9.*., + + 1 ;.V.w.x ; ; 5 q +.o.' 0 > : u >.t.8.:.p 2 : 2 7.vXbXY.C : ; t 8.p.e.$.; + @ r k j t X X X X o < ; @ X X X ",
"o X X @ u B < ; + @ l Z.uXV.b ; : > q ^ _ q 5 @ ; 2 $.t.8.s < < 2 N M.).vXm.B ; O t -.e.p.>.* ; ; < h g 5 o o X X o O o X X X X ",
"; f G x f V < + ; @ b C.fXC.b ; ; # 5 6 5 5 < : ; 1 j t.-.j u > 8 U l.N.M.l.8 : : y 8.wXp.$.< + * 5 g 5 < @ X + X 3 6 4 4 X . X ",
"1 Y 6.U Y T z ; X ; b V.C.B.b ; @ ; f m p z : : ; : *.t.t.v y > 2 z { Q.Q.{ 8 : : y *.t.-.d ; ; , M M 1 < @ + X X O 4 ! ! o . X ",
"1 B G x B B : o @ ; b =.;.=.y , @ : B U G z 2 : > > J 8.t.v u < > 5 [  . .S > : < u a *.a 1 ; ; 2 N S 1 ; % + X X @ 4 ! ! 3 o X ",
", 2 0 m m 2 ; % = ; b B.B.=., , ; 1 c.^.!.Y u : < > d t.i.>.m > > > S { O.S 2 > : , p a s y , + : 8 U j.j.=.l = + o 3 6 3 O o . ",
"H Y W G Y C , + ; , ;.V.;.b 1 , , u c.]._.7.2 : > p 0.VXVXi.j 1 > 8 S v.R.U 0 N 0 1 s $.>.s , , @ 1 j.G.H.G.=.8 X X O 6 6 3 o X ",
"2.n.7.W Y D : @ ; l Z.V.w.b : , 8 <.I.^.^.3.2 < : G zXVXxX0.g 5 1 0 W v.v.{ N Q I u s d $.g : ; ; : k.H.H.b.l - ; u V h 6 f 2 X ",
"K !.^.n.G u ; ; ; l ;.Z.;.c : : m 7.^.^.!.Y : ; : B 0.zX).>.f > 2 m W v.x.n 8 C m z L a.) 6 2 : : : =.H.dXj.1 = : C 6.7.c.Y m @ ",
"Y '.vXm.B : : : , 1 x F Z 2 2 2 m m.vXNXvXY : : > 5 >.i.i.<.V u z C { x.x.{ l z z B m.~.E.a.m : : l k.fXfXS.l X ; u U 1.l.G 2 X ",
"I !.^.3.u : : < x v G V V 5 2 8 Z (.GXJXGXn.1 : 5 m 1.i.A.0.,.f m C z.M.x.U z z B K i.)._.I.G 1 2 U S.fXfXfXn % ; 1 n j.j.n l ; ",
"u B D p : : : u b.zXsXF.9.D 8 8 G vXJXJXGXm.z 2 2 D 0.D.h.s.' ) ) Y v.m.x.G m m z C 1.i.0.Y ( ~ }.OX$X#X#Xf.) o = 1 n Z.S.l.n : ",
"&.&.>.g 1 1 2 z b.F.zXF.1.C m z C ).GXHXbXn.m 2 u C ,.f.=X:X:X>X=X2.m.M.l.C m 2 2 B K ' OX%X:X>X>X>X>X>X>X>X=X*X! @ x A.nX).l.1 ",
"rXrXg.d 1 1 8 z C Y Y T T C N C C c.^.(.U.I m m C L a.;X>X>X>X>X:X7.m.F.m.U m m B G OX>X>X>X>X>X>X>X>X>X>X>X>X>X>X Xu 6.).).m.u ",
"rXrXy.j 2 2 m m T E E ` T Z Z Z H 6.v.z.W Z m m H 7.+X>X>X>X>X>X:Xa.m.M.M.U b B V U OX>X>X>X>X=X%X*X$X$X<X,X>X>X>X>XXXj.S.S.j.8 ",
"tXy.&.p 8 8 S ` +.o.+.O.T I I I 3.!.(.^.7.H M m G #X:X>X;X:X>X>X=XQ v.m.x.l.U G F <.OX>X>X.X~ ) M 1.G.dXdX~.*X:X>X>X:X#XN.N.{ l ",
"yXrXy.f u z A +.6X6X6XO.Q I U W v.].MXbX^.2.C M ) =X>X>X4X<X>X>X=XQ v.v.x.1.K G L Y OX+X' A M m B l.G.dXfXfXM.XX>X>X>X<X@.8X .9 ",
"yXyXy.x 8 m S ' W.+.W.P.W W Y x.m.vXNXMX).z.H M OX>X>X*X!.;X>X>X:X{ v.v.x.1.K G L L R 4.a.A M m H b.J.fXfXfXS.m =X>X>X,Xo.9X8X[ ",
"yXyXy.m z N A ' f.P.P.a.{ 3.3.3.I.'.{.].Y.3.Z ^ >X>X:Xf.U.;X>X>X:XL.R.v.x.Y G D G L L R ` A M m S x.'.J.b.n c &  X>X>X>X3X0X0X} ",
"rXg.,.z m C T s.s.d.d.K.z.z.x.c.Y.(./.Y.4.T ) %X>X:X#X/.T.;X>X>X=XL.v.L.W T G D F L L R P A V B C v.N.N.{ f < e }.>X>X>X3X0X0XX.",
"tXy.J z x C H d.h.h.T.z.z.c.7.c.^.[.(.U.W Z XX>X>X*X^.(.E.;X>X>X=X4.K.z.4.T L D F R 5.5.2.P A H H W v.v.T ( ( 4 }.>X>X>X3X#.9XX.",
"rX8.D z z C 2.T.4X`.~.z.z.c.c.I.E././.I.Y ] >X>X:Xf./.'.E.;X>X>X=X4.7.K.4.z.<.<.L P 5.4.4.R P G U S ' ' ] #X] 6 .X>X>X>X/ 8X9XX.",
"rX&.D z C b.zXxXVXVXzXR.v.v.v.U.^.'.[./.d.%X>X>X@X/._.[.E.-X>X>X:XR 7.K.L.I.7.<.L R R R W 3.Y H C I _ ] ] 4XOX] >X>X>X%X} .. .| ",
"rX&.B x K F.fXVXVXVXzXI.v.v.v.R.].{.{./.$X>X>X%Xa./.'.[.E.<X>X>X:XT 3.K.K.7.7.2.<.P P T T W U U U S ` ] ] 4XOX;X>X>X>X}.| ..| [ ",
"8.g B z G b.F.F.sXzX!.v.v.v.I.{.FXFX{.W.:X>X=X] 4.I././.E.<X>X>X:XT W v.K.4.7.2.Y P P ` E R U G G T _ f.4X#X*X>X>X>X=Xq @.0X8X..",
"&.1 m z x I W z.T.T.T.v.v.n.^.LXUXUXLX:X>X>X}.H 4.E./.[.`.-X>X>X:XT R 4.K.4.3.5.<.P ` s.` Q I G C F 2.f.DX4X:X>X>X:X! : [ X...[ ",
"j u z z F 6.m.0.T.`.R.I.v.v./.LXUXUX7X>X>X%XM H L.`.{.{.`.;X>X>X=XR Y 4.K.4.3.3.L R a.T.W.s.2.Y G C I ^.DX,X:X>X>X~ X ; 9 ....[ ",
"v z B u b.fXVXbXnX_.U.L.Y.].NXFXLXDX:X>X:X] H R I.'.{.{.[.;X>X>X:XE W 7.L.c.3.3.2.R K.P.P.P.O.R G C c s.<X>X>X>X}.O + @ 7 ..9X8X",
"<.( XXXX+X2X5X5X2X$X+X+XT.{.LXGXLX1X>X>X.XZ T 3.R.'.[.{.`.<X>X>X:XQ 4.O.K.K.z.3.R L E a.s.s.` W Z Z ) %X>X>X>X*X6 = % % : | 0X0X",
"Z ! :X>X>X>X>X>X>X>X>X:X+./.{.MX7X>X>X=X_ H H 3.I.E./.[.E.<X>X>X=XW R K.P.` 4.2.R L E ` P.K.Q I C A &X>X>X>X&XOX! = = X ;  .0X0X",
"m ! :X>X>X>X>X>X>X>X>X:X' 3.3.a.*X>X>XXX|.|.|.|.@X#X@X#X@X,X>X>X:X|.|.@X@XO.W L H H T ` P.` R G ) %X>X>X>X*X@X/ q @ @ X @ | 9X0X",
"x 6 ~ |.|.|.|.@X@X@XOX@X` 3.x.W *X>X>X>X>X>X>X>X>X>X>X>X>X>X>X>X>X>X>X>X=X_ T H C V T ` ' ` T ) *X>X>X>X<XoXoXoX^ # X X X 9 X.9X",
"2 1 2 B l.M.m.I.a.Q W W 3.x.).!.*X>X>X>X>X>X>X>X>X>X>X>X>X>X>X>X>X>X>X>X:X_ H V B B Z _ _ ` _ %X>X>X>X%XoX^ / / ^ # X X X 9  .8X",
", 2 H I.vXbXFXbX).x.W U U m.FXNX2X<X&X%X%X%X%X%X<X<X<X<X&X>X>X>X>X%X%X%X%X) Z B f m B A A _ %X>X>X>X.X) q 5 q ^ 6 o X X 7 [ ..X.",
"; 8 W !.].].MXMX(.x.I I I v.MXFXNXvXd.M 5 M E ` P.P.L.a.' -X>X>X:XA A A ) Z M m B u B V A %X>X>X>X.X5 > : , > 3 3 # X + 9 X.9XX.",
"; z c.^.^.A.Y.Y.c.I G C G W Y.(.(.Y.3.m 2 l Z T 4.L.z.Q ` -X>X>X=XM Z Z H Z B m z m B ) *X>X>X>X%X6 1 2 , , : < 3 o + . 7  .#.X.",
"+ C L.].MXbX'.M.G C C C C B N V V A 6 2 1 2 m C Z P P P h -X>X>X:XV Z T W 3.L x u f ) *X>X>X>X.X6 2 > x 1.b.9.1.C , +   + 7 q ^ ",
"+ 2 S R.'.].(.n.C u m z z B G C M h 5 > : : 5 C Z V g f 6 %X>X>X:XA V W 3.3.I x u V XX>X>X>X>X.X X XXXXX$X$X2X$X+X X X X~ . @ 3 ",
"X X ; u S H Z 0 : 1 , , x m.).!.0.L 1 + = : m W 3.R F f g -X>X>X=X0 0 V H H H B u u *X>X>X>X>X>X>X>X>X>X>X>X>X>X>X>X>X>X X  X O ",
"% X X X + @ 3 3 ; = ; : 1.NXJXHXCX).x + ; 8 O.L.E.Y.n.<.k %X>X>X=X3 < 5 f B m r < ; .X>X>X>X>X>X>X>X>X>X>X>X>X>X>X>X>X>X X  X e ",
"X X X X , t 6 3 O = + , 4.BXLXLXGX).p + o > E L.E./.^.Y.5.XX.X.X X5 < 5 5 5 f 2 , , }..X.X.X.X.X.X X.X1X2X2X2X2X2X1X.X X~ . & $.",
"X r d d w.r.8.r o X , J m.mXGXGXCXA.1 % o ; M E a.U.U.m.A.0.1.L C f > f m m 2 , , r d 0.A.i.a.j * X z I.[.BXBXBXMX^.g .   . $ $.",
"X *.w.V.iXgXuXa $ + B ).nXVXGXGXCXA.t % X < 0 M H 2.5.0.A.U.0.5.D f 2 f Z H f , & , >.nXHXZXnXA.p X o m R zXCXVXnX).p X .   $ e ",
"$ -.uXiXgXgXV.e X X B _.GXJXHXGXNX0.1 X o < M Z V V j <.6.7.U.0.L g u u V H m ; + & A.KXKXKXKXnX>.X . X j nXKXKXHXCX,..   . . . ",
"& %.r.r.r.w.*.= . X = K zXjXVXxXi.g X $ + > M C F f r t D <.2.L B g p g B B u * % & 5.NXPXPXLX].D X X . p nXLXPXKXCX<..   X $ & ",
"-.iXiXr.r.w.d $ X . . w e.eXAXeXqX%.& $ X > M H J d i t *.>.>.D p 1 u u f f < + % & p 7.vXNX_.L % . . . * 0.CXZXCXzXu .   $ a -.",
"r.lXlXiXuXV.b $ . . . e e.eXAXAXeXqXe   @ > m C L *.d a $.8.*.c p < 1 u u 2 , - * & t r g f u X   X . . $ d D.).D.8.w X   - -.C.",
"B.gXiX;.;.*.- $ . . % $.qXqXqXqXqX%.&   o > m C G J s a *.>.v l s p r < 1 1 ; & & w a j p & & . X   . . X d w.r.w.w.a X   X b B.",
"r.gXiX$.e - $ . . . e q.qXe.%.%.e e % X @ > B V D p p i d v c c v p u < , , = & & w v 9.0.9.K t X . .   . a D.zXaXi.J %     X y ",
"r.gXgXr.-.w . . . * %.wXwXe.%.e e & $ X > N L <.L D p i d v a c v s r ; , = - & & w J A.).).A.:., $ .   . v CXJXCXxXA.t       $ ",
"w.gXgXuXw.a .   . & *.pXjXwXp.$.d & & $ < H 1.6.3.K c p a a p t p p < , ; ; , & - w v A.).).A.1.t $ . . $ 1.CXIXPXPXvXj   .     ",
"r.gXiXuX-.e . . X % d p.pXaXp.u.$.e % * < V 2.6.3.K p t y x y r t u u y r * ; & - w p 5.!.^.n.J y & . . % J nXJXPXLXmXF         ",
"iXlXgXiX-.& . X & - d w.pXaXaXi.-.d w % 1 m L Y K K p t t s p p p i p p p , ; & , w y D 5.5.L p 1 & % X % p 0.xXnXcX!.t       . ",
"SXSXlXuX-.& X $ % y *.D.wXaXD.u.-.d w * , g C D G c x i a c v c x l p x x p y t w r t g L J p 1 , & % % % p 0.i.A.i.>.*       ; ",
"SXSXSXuX*.& X X - x u.pXsXaXu.*.d e - , < u x B f p t p v :.:.v c i x x K v c x i y i c K D u y , & . % % p >.9.8.:.t X   . o D ",
"lXlXiXw.a % X % - c p.xXzXp.>.a r , & 1 y x p D p u y c :.K K c c c x c :.v c l p p K 1.9.1.v i r * + % & 1 c :.:.j g %   . X f ",
"hXkXpX-.e % $ % , b Z.aXaXp.-.a r & ; 1 p D v c c l x c D D c c c p x x G v x y u x K 9.0.1.:.i t , * & % 1 c >.5.5.F 1 . X o ; ",
"aXpXV.-.t & % % - v 8.A.i.9.*.d e w , , p c :.n v c c c s c c c p p u f p x u u 1 p J 1.1.<.D i r & * + , p >.0.^._.!.K.T Q T E "
};
