/* XPM */
static char *out[] = {
/* columns rows colors chars-per-pixel */
"64 64 256 2 ",
"   c #070706",
".  c #070807",
"X  c #0C0C0B",
"o  c #150E0D",
"O  c #0E100E",
"+  c #12110E",
"@  c #1B140F",
"#  c #0C0D13",
"$  c #0C0D1C",
"%  c #130E15",
"&  c #0E1113",
"*  c #0D121A",
"=  c #131313",
"-  c #1B1513",
";  c #1A1A15",
":  c #14151A",
">  c #181718",
",  c #161A1B",
"<  c #1B1C1C",
"1  c #290F10",
"2  c #251717",
"3  c #241C1B",
"4  c #361517",
"5  c #1D2218",
"6  c #27241B",
"7  c #37281A",
"8  c #323519",
"9  c #0E0E2A",
"0  c #0D1525",
"q  c #141625",
"w  c #151A24",
"e  c #1B1C23",
"r  c #161C2B",
"t  c #1B1D2B",
"y  c #0E1637",
"u  c #151B35",
"i  c #241C26",
"p  c #321B2E",
"a  c #1D2224",
"s  c #172629",
"d  c #1C222C",
"f  c #1C2233",
"g  c #182438",
"h  c #1B3539",
"j  c #222324",
"k  c #2A2726",
"l  c #23242A",
"z  c #242A2C",
"x  c #2A2A2C",
"c  c #352B26",
"v  c #35312F",
"b  c #232432",
"n  c #242B32",
"m  c #2A2D32",
"M  c #27283A",
"N  c #242B3B",
"B  c #2C3234",
"V  c #253339",
"C  c #2D333C",
"Z  c #373638",
"A  c #33343C",
"S  c #333A3D",
"D  c #4A151B",
"F  c #462A15",
"G  c #532C1A",
"H  c #4A321A",
"J  c #593A1A",
"K  c #653B1C",
"L  c #5B1C25",
"P  c #483726",
"I  c #573C27",
"U  c #4C3030",
"Y  c #6E2C30",
"T  c #394719",
"R  c #324A3A",
"E  c #57481C",
"W  c #475A1C",
"Q  c #69461D",
"!  c #79511E",
"~  c #556F1C",
"^  c #627C1E",
"/  c #58432A",
"(  c #4A4732",
")  c #584635",
"_  c #694728",
"`  c #764C26",
"'  c #7C5227",
"]  c #6A4F30",
"[  c #685337",
"{  c #7B5737",
"}  c #597522",
"|  c #736C2C",
" . c #141947",
".. c #2A1D4B",
"X. c #192747",
"o. c #1A3649",
"O. c #1B2956",
"+. c #1A3658",
"@. c #262946",
"#. c #38284E",
"$. c #2B3546",
"%. c #353C43",
"&. c #363947",
"*. c #262859",
"=. c #283A58",
"-. c #343B56",
";. c #221F6C",
":. c #1A3665",
">. c #1A2B76",
",. c #232C64",
"<. c #35276E",
"1. c #243768",
"2. c #273776",
"3. c #4B3B4C",
"4. c #643950",
"5. c #542B76",
"6. c #1C4A4C",
"7. c #1D4A57",
"8. c #3B454A",
"9. c #2A4852",
"0. c #3D4453",
"q. c #384757",
"w. c #396750",
"e. c #1D4269",
"r. c #1D596C",
"t. c #1B4878",
"y. c #3A4967",
"u. c #304F72",
"i. c #1C6277",
"p. c #38706B",
"a. c #236578",
"s. c #444448",
"d. c #584A46",
"f. c #454A57",
"g. c #48525D",
"h. c #575053",
"j. c #684848",
"k. c #6B5A47",
"l. c #775B47",
"z. c #695954",
"x. c #765D54",
"c. c #7A634A",
"v. c #6F655C",
"b. c #796555",
"n. c #484B66",
"m. c #534A68",
"M. c #485468",
"N. c #545969",
"B. c #4A5977",
"V. c #525B75",
"C. c #64556C",
"Z. c #4D6573",
"A. c #59667A",
"S. c #6C686C",
"D. c #841F2B",
"F. c #8F2935",
"G. c #86591E",
"H. c #844626",
"J. c #835729",
"K. c #8A5B2F",
"L. c #835A35",
"P. c #8A5C32",
"I. c #966A29",
"U. c #997329",
"Y. c #8B6439",
"T. c #976839",
"R. c #907033",
"E. c #A57A29",
"W. c #AB7137",
"Q. c #C17D37",
"!. c #863353",
"~. c #845F43",
"^. c #896648",
"/. c #946A47",
"(. c #997549",
"). c #876957",
"_. c #966C56",
"`. c #897558",
"'. c #987458",
"]. c #A77645",
"[. c #AE7150",
"{. c #A67858",
"}. c #B57656",
"|. c #81587A",
" X c #866E6A",
".X c #8C7466",
"XX c #957867",
"oX c #A97D65",
"OX c #698B1E",
"+X c #688822",
"@X c #709223",
"#X c #93862F",
"$X c #B28B33",
"%X c #C58635",
"&X c #C5993A",
"*X c #D0AB3A",
"=X c #9D8551",
"-X c #B1874E",
";X c #988870",
":X c #998976",
">X c #A6846A",
",X c #AF9371",
"<X c #BFAA7F",
"1X c #CC954C",
"2X c #CCA260",
"3X c #202F88",
"4X c #2239AE",
"5X c #4B1F8C",
"6X c #4A228F",
"7X c #5921A1",
"8X c #1B4D8B",
"9X c #304E8E",
"0X c #1B718B",
"qX c #2C6D8C",
"wX c #1E5EA7",
"eX c #2459A7",
"rX c #2668B5",
"tX c #465689",
"yX c #5E5298",
"uX c #576786",
"iX c #506B94",
"pX c #6A6F8F",
"aX c #64758D",
"sX c #667798",
"dX c #5375A8",
"fX c #6B7BA5",
"gX c #2965CA",
"hX c #72819B",
"jX c #5785B5",
"kX c #7887A8",
"lX c #6F87B3",
"zX c #7D95C4",
"xX c #8F8D91",
"cX c #AA9B87",
"vX c #AE9890",
"bX c #AFA185",
"nX c #BAA786",
"mX c #B7A89A",
"MX c #8C95AC",
"NX c #8597B9",
"BX c #B6AEAB",
"VX c #C19C87",
"CX c #C6B394",
"ZX c #D6BB98",
"AX c #CCB4A7",
"SX c #D7C290",
"DX c #E8CD9B",
"FX c #D6C6AE",
"GX c #EBD6A7",
"HX c #EBD7B4",
"JX c #839BC8",
"KX c #98AACB",
"LX c #DBD0C6",
"PX c #E6DBCD",
"IX c #EDE2D4",
"UX c #F3ECE9",
/* pixels */
"N , & X # g X.s * O O a =.y.=.f = - = x 8.0.A x 3 ; 6 c c c c 6 5 x A &.#.&.b ; - > 4 p 4 2 O O % f O.O.u X X + 2 4 D 4 % X % i ",
"M = X X * X.+.X.0 X + d &.y.q.N : = + m n.M.&.b ; ; 5 z A B k 5 5 x %.s.0.S k > > < 3 4 4 2 = O = u +.+.g & X + 2 p U 4 % X O e ",
"j O X X q o.:.o.0 X : z $.-.q.M e + + x M.V.0.m < ; 5 &.N.n.&.5 < l $.9.9.V j - > x &.&.&.i % + = f :.:.X.* X O i 3.3.#.i X X < ",
"< O X O g 7.t.+.s O & d $.=.=.N > O + A uXpXV.0.j < x 0.V.M.&.3 < 6 S 9.$.n 5 = 3 b $.-.$.f = X O u +.:.+.w O X ; 3.B.-.e X X = ",
"+ X X & X.e.e.+.0 & X w +.+.o.t = + = &.m.uXV.s.j j A 0.n.f.Z j ; < B 0.8.n < = - q @.,.*.u % O X w +.:.+.g & X X p #.p = X . X ",
"X X O & o.e.e.X.= O & o.:.+.g w = + = j &.&.&.k < ; i -.y.1.@.< ; ; j &.0.&.l = o q  .,.O.u = O & r X.O.O.r & X o p ..i % X X X ",
"X X X w +.e.+.0 O O = +.e.o.f , + = - i 7 6 3 > ; ; e X.,.,.@.e ; ; ; b 8.0.C ; - t O.O.O.u = O = u +.X.g q X X : $.f.&.6 X X O ",
"X + O , +.e.o.0 O O = +.:.+.r = = ; 7 _ _ I 7 ; ; ; M *.,...u 3 , ; %.M.B.n.n @ % q O.2.,. .% # = r ....r & X X X < M b < o X X ",
"X X X : g @.f = + O , +.8Xt.g = + - 7 I I I 6 ; = < X.,.*.g d ; - 5 &.uXsXn.z , ; , X.>.3XX.: o % % p p > O O X X X   . X X X X ",
"O = = = < i 2 + + + s e.qXt.X.= + > 4 P D c ; , , = ..,.O.f , ; ; s 9.B.p.q.d ; - , O.2.2.O.: % % % 4 p 2 O X O X o 1 1 o X X X ",
"= n $.m m m j = = = f t.8X8Xg ; + - 3 k i i ; = - , g ,.,.@.n v R 8.w.w.w.9.j ; ; > O.>.,. .: = % 2 i 2 > % X X X @ 4 D 1 o X X ",
": m $.n m m e = O = s +.r.+.s , = = e l s a < 6 ( z. X:XcXnXnXnX<XVXnXVXnXbX;XS.h.Z ..*.X.r = = ; z x ; % % O O o o 4 D D 1 X X ",
"= < j 6 a a = X O & g +.7.o.r = = - n &.C S ;XAXSXSXSXDXHXHXIXHXHXPXIXHXGXSXCXZXDXFXBX$.q q : = > z V s 5 w & X X o 1 4 D 1     ",
"> j j j l a = & + = g 7.:.o., = = ; %.Z.aXBXFXZXZXAXPXIXUXUXHXFXFXHXUXUXUXUXFXZXSXFXFXLXS.u : = = < h 6.7.7.h * X . 1 4 1 1 o X ",
"C %.8.B C m : = = , =.t.1.X.: = : l 8.Z.FXPXFXZXDXDXIXIXIXIXLXPXLXIXIXIXPXIXGXDXDXZXAXFXLXg < = + , 6.a.i.r.h , X = 1 1 4 1 o O ",
"C 0.n.&.C z = = = s e.t.e.g , > a %.f.M.BXmX;XxXCXDXDXGXHXGXHXHXHXHXHXGXGXGXDXSXmX;X:XcXmXp > = = = o.a.qX7.s = % x &.Z &.m j o ",
"M M.B.0.n e = = = e o.=.$.f > > 5 &.M.B.cXk.b.v.b.:X:XcXbXnX2X,X,X,X<XFXAX,X:X:X,X;X;X;XmXc < : ; , o.a.a.7.s X & z A &.&.C l O ",
"m M.A.f.l , > > ; e i i k e ; < j M.aXkXMXc.] [ | ;X:XcXbXmX,XR.U.R.#X;X;X;X;X Xb.c.>X>XxXh.x ; ; s 7.a.qXqXh # O , h 6.9.h a o ",
"j &.&.m < = = < h e.9.$.@.l < < z V.kXzXBXcX[ [ [ c.k.[ [ b.$X! G.` R.:XcX;X).l.k.c..XBXxX&.x < , V a.a.0Xa.h O & w h 7.7.o.s & ",
"e u b e > , ; a q.9XiX9Xq.b a a j uXNXAXAX;X_ E / [ [ [ k.`.#X! 7 ! #X<X,Xb.k./ / / ) xXmXvXx < e n 9.r.r.o.s & X = s q.p.y.$., ",
";.<.<.b < > 5 a $.y.u.y.$.z j a k f.vX<XnX>X{ ` ` Q J G F / $X! E Q R.H 7 F F H H H / .X.X_.z.e a f r.a.a.7.s & & O ; 9.iXuXf.d ",
"5X5X<...e < < a l b v v v x z z m ) [.].].]./.Y.P.P.L././.(.$XG.Q ! U.E F G I K J K { ^.~.~.l.j d V a.0X0Xi.o.: O & 5 6.y.u.y.d ",
"5X5.*.i < < j v ( ) ) U v m B B A h./.T.W.].].W.T.P.K.Y.Y.T.&XG.8 I.U.Q _ ` J.L.L.T./.^.{ ] l.j j $.i.0X0Xa.o., O , h 6.6.6.6.s ",
"5X5.<.l e a k / { l.l.[ Z B B B S N.T.T.Y.T.].[.].T.].].{.=X&XI.E U.U.Y./.].]./.].(.~.` ` ] l.3 z V r.0X0X0X7., & O 5 h w.w.w.6 ",
"7X7X;.p 5 a x ) ~.~.~.d.S B S S 8.S.Y.P.K.K.P.].[.<X2X,X-X].$XE.! U.I.I.W.].].[.{.P.] ` { l.x.i z 6.p.qX0XqXr.g = O O 8 ~ +X~ T ",
"7X7X<.u a l v U 4.{ j.U S S R %.f.A.T.K.K.K.P.K.T.W.T.K.J.H.I.E.#XU.I.! H.J.J.T.L.` ` _ _ { b.k x 9.p.qXa.r.6.d , O O 8 +XOX+XT ",
"5X6X<.p i j v U 4.4.s.s.S 8.R 8.f.N.~.K.K.K.K.P.T.T.K.H.' ` I.$XQ $XU.Q ' ' J.K.{ ` _ ` { l.x.i x S Z.w.8.s r : & = O 5 } @X+X} ",
"5X5X..i l k M 3.4.4.3.8.S 8.8.8.g.C./.K.K.K.K.K.T.W.K.J.J.' T.*XR.#X$XK ` ' ' K.L._ ` l.).).b.b x S w.w.R 6 2 $ = O O 5 ~ @XOX} ",
"6X<.M e j z m 3.C.|.m.&.s.8.8.s.h.S./.Y.Y.T.P.K.P.W.K.' ' ` R.*X#X$X$XQ H.' J.P.J._ ~.).). Xv.n m B ( s.L Y L p ; O O 5 W +X+X} ",
"5X;.b j a N =.n.C.yXB.f.8.s.8.q.g.S.'.Y./././.P.T./.I.! H.` R.*XE &X$XQ ` ' ' L.L.l. X X.XXXv.B m B U Y F.F.D.L ; & = 8 W } } } ",
"5X..u d M 9.qXdXyXdXtXf.8.8.8.f.M.S.>X/././././.T./.K.! ' ` Y.*X| *X$XQ ' ` ' K.L.~..X.X.X.Xv.N n B U Y Y F.F.L = O & 5 T W T T ",
"5X..i l n u.9XdXdXiXtXq.f.8.8.N.A.pX>X/./././.^.P.T.K.F.` ! Y.*X#X&X$XK ` ' H.L.L.)..XXX.XXXv.n B B U Y 4.F.F.L 5 O * * W +X~ W ",
"..l d a z C 9.0.g.h.g.8.f.8.f.aXMXBX;X_._._.'._./.T.J.` ! _ R.&X*X$X$XQ Q Q ! K.L.)..XXX.X.Xz.V z V U 4.!.!.D.L @ % O 5 W +X^ W ",
"..a j a l B S &.j.z.d.f.8.8.h.MXKXKX:Xj.)._.'.'./.W.K.Q ` K.$X$X$X$XE.I.G.Q ` P.~. X.XS.z.z.h.m z z x m.pXpX5.3.: o X + 8 ~ W 8 ",
"u j a a n q.u.M.m.N.g.8.g.g.Z.hXNXKX Xj.) )._.'./.T.R.$X$XU.! F F 7 J ! U.E.I.J.~.).v.z.z.z.d.B B z z q.fXfXpXn.t + O = 5 ~ +XW ",
"$.e e d 9.dXjXdXdXiXg.8.g.A.hXkXMXNX XmXb.j.k.)./.1X*XI.F F J @ E o Q Q F J U.&X~.x.z.k.z.z.h.Z n z x S m.S.|.j.i = & X @ W OXOX",
"$.e a l q.iXjXjXdXiX0.8.8.S.hXkXkXkX XFXAXxXj.j.$X&XE J F F @ o - + @ 7 _ ! H G.#Xl.x.x.'.).h.B n z v U L F.F.D.D + O O O T @X@X",
"l < a e B y.uXB.V.g.8.8.8.8.g.N.A.S. X>XAXmXj.l.-XQ Q J @ @ 2 7 - @ ; @ @ 7 Q E R.^.b.)._.'.d.B n z v Y D.F.F.D.F + O O = W @X@X",
"f , < a z m S &.d.s.%.%.S 8.S S S Z ).`.`.XXl.^.R.' E @ @ 6 / E 7 P / 7 6 2 8 ' _ `.x.'.^._.d.B s s v Y H.F.F.D.D O O X X T OX@X",
"d > , < z C %.A 3.U R S S 8.q.9.C l ).).'.l.l.(.=X| 2 @ ( ] 8 ( [ [ 7 7 H 7 - H _ ).x._._.).d.z z a c _ H.Y ! H.K @ X X X 5 W OX",
"; , j %.y.Z.uXZ.g.%.C S S 0.uXuXy.N ).).).-X_.].=X( ; ; 7 ) =X,XT.W.,Xv.@ @ - 3 I c._.).x.).3.x d a k I G 7 G K G @ X X o 8 T OX",
"= < x g.A.hXhXsXZ.8.V B B 0.sXkXsXu.)./.).(.1X1X-X6 ; ; c =X=X2X=X>XCXnX6 ; 6 3 P ).}.'.x._.4.B z a 3 k 6 - 2 7 4 o O X ; W ~ ~ ",
"= 5 A f.Z.N.Z.Z.M.8.B m B 8.Z.aXaXuX XvXVX}.1X1X=X8 c 7 ) 1X&X=X{ ] c.,Xc 6 7 P U ).oX_.oX'.d.x d 5 , , ; - = 2 1 @ X X @ ~ OXOX",
"O j 0.Z.Z.B.y.q.S z z m m z Z S &.Z ).AX,XcX_.1X(.( H 8 ( U.-X,X{ / / =Xc 2 7 8 P ).XXmXvX}.3.x a e > : e f d s ; + X X + 8 W W ",
"# a 8.S.aXaXA.g.B l z d l z l j k D ).VXcXvX_.1XY.8 c 7 7 c.Y.c.`.c.k.( 6 2 7 6 U `.vXBXvX[.d.x e > < V q.u.B.y.-.e X X X X @ 7 ",
"X = 5 Z g.g.0.8.l e < e 5 n $.@.M p x.}.AXVX_.}./.c 6 6 < ) ] [ _ 8 / c ; 7 c 6 ) '.BXmX,XXXY i , = a $.Z.uXA.uXM.M X X X X X 1 ",
"X o O % < ; 3 ; = = : = n B.sXuXtX0.x.oX}.}.[.}./.I 3 I / 7 v U ) c c c P / c 7 [ {.mX,XoXXXU - = & , l 8.q.n.n.%.a X . . X X o ",
"X X X X X @ 4 1 @ O = & %.aXNXNXlXuXC.vXoX}.}.}.(.` c 6 P / I I / ) / / 7 6 6 ] { {.,XXX XXXD 2 + X : C y.uXaXuXB.$.> X . . X y ",
"X # $ * 0 u p 1 - O & : A pXMXkXlXB.z.>X>XoX}.}.-X` _ P I ] 7 I 8 ( | 7 5 5 / R.~.oXXXXX.XXXU 1 o X e f.sXfXhXfXpXN.b X   . $  .",
"X 0 X.O.t.8X>.r X X : -.y.uXfXlXfXy.h.>X>X>XXXoX}.I._ _ c 6 2 T.$XR.#XH c [ =XY./.XXXXXXXX.Xm.#.> # > &.h.uXsXsXpXV.l X .   # y ",
"# X.t.8XwXrX8Xy X X d V.kXlXkXlXkXn.M :X>X>X>XoX'.1XY.K K ' W.}.1X*XW.Q.-XR.Y.R.)..XXX XXXMXlXiX@.X X X d tXlXlXdXiXM X .     # ",
"#  .t.8X8X8Xe.0 X X < f.sXlXlXfXuX#.- k XX>X>XXX'.{.$X$XJ.Q.%X2X2X1X` ` { R.W./.)..XXX.X XJXzXsX&.X . X d dXzXJXJXlX-.%   .   . ",
"0 +.>.e.:.:. .* X . % 9 2.eXyX4X;.y % X v XX>XoXoX{.(./.$XQ.%XQ.W.1XI.I.Y.Y.L._._..X.Xv.kXJXMXV.f X . X $ B.kXJXNXfX$.# . . $ 9 ",
"O.wXwX8X8Xt.X.# . X . $ ;.4XgX4X4X>.9 X O x `.;X>X{.(.^.~.P.L.T.W.L.L.L.~.^./._._.XXz.v &.f.&.< X .     . M tXsXiXy.q .   $ X.:.",
":.wXrX8Xt.e.y X . X # 9 3X4X4X4X4X>.y X O ; k d.XX>X-X_./.^./.^.^.^.)./././._.{.`.d.t q : # X   . X   X . u ,.1.,.,.y X   # g t.",
":.wX8X+.y y # . X . $  .;.3X3X3X;. .$ X X ; i l B b.).).).^.).l.^.l.).l.c.c.x.d.e 9 r @.M t q o X .     . y 1.2.1.1.u X   X q o.",
">.wX8XO.y * . . . . y >.3X>. . .9 9 # . $ < l m M i b b C A S Z &.3.v v i < : $ # 0 g -.y.-.-.u $ .     . q tXyXtXu.*.: X   . % ",
":.wXwXt.:.y #   . % X.9XeX6XO. .9 $ # # ; l C %.$.M b u u u f t g t q : + = * : * 0 g y.V.tXn.$.q # . . . X.fXJXJXfXV.p .       ",
":.wXwXt.:.y #   . # u 3X9X9X>.*.u 9 # X : x &.&.&.V f t r u r q e e > > = = = $ $ * b -.B.B.y.@.r #     # @.sXJXKXJXfXA .       ",
">.wXwX8X+.0 . . X # r :.9X9X2.1.*.y $ # : l $.&.$.N i q q r r e q e r e w : = # $ 0 r M 3.y.-.b w # X X X g u.fXfXlXyXc .       ",
"wXgXrXwX+.$ X . & * u 1.9X9X9X2.,.y 9 % = i n M m b t r r f f t d w t d t w : : 0 : q i A $.M e q $ o # # w -.B.tXV.3.e       X ",
"rXgXrX0XO.0 . # * r *.9X9X6Xy.*.X.y $ : > e l l l b r r f g g N g d d d f d r r r 0 q t b b w : = # # # # r $.-.-.*.f %       e ",
"rXgXrX8XX.$ . X & r 1.tXtX2.O.g u 0 : : , t d l i t e u @.@.N g f f d d @.N f f r r f g M N s w : % . # & w @.@.#.@.q #     X b ",
"rXrXwX:.u $ # . * f 2.tX9Xu.*.u q # $ : e d f f t e t t g M M f g t t d N h f r s t N $.-.$.@.r q 0 & # # : t ..M M i % . X X > "
};
