/* XPM */
static char *out[] = {
/* columns rows colors chars-per-pixel */
"64 64 242 2 ",
"   c #4A443F",
".  c #4E4B4B",
"X  c #86441D",
"o  c #8A552E",
"O  c #975D36",
"+  c #8A613B",
"@  c #97663B",
"#  c #AF6D2F",
"$  c #B36D2B",
"%  c #B7732C",
"&  c #A76E39",
"*  c #AA733E",
"=  c #B87739",
"-  c #C67527",
";  c #C27A35",
":  c #C37B38",
">  c #9C5E41",
",  c #89694C",
"<  c #976B46",
"1  c #9C744A",
"2  c #957556",
"3  c #9C7C5B",
"4  c #A46B45",
"5  c #AB7642",
"6  c #A87849",
"7  c #B27544",
"8  c #B77B48",
"9  c #A87B58",
"0  c #B87C53",
"q  c #887963",
"w  c #9B7F66",
"e  c #BB8137",
"r  c #D5863B",
"t  c #AB844C",
"y  c #BA824A",
"u  c #B88749",
"i  c #BF914E",
"p  c #AA8759",
"a  c #B68957",
"s  c #BA955C",
"d  c #96846C",
"f  c #8D8370",
"g  c #9B8976",
"h  c #A78866",
"j  c #B78965",
"k  c #AC916C",
"l  c #B99568",
"z  c #A48C72",
"x  c #A38E7B",
"c  c #BF8C71",
"v  c #AB9579",
"b  c #B39373",
"n  c #B69973",
"m  c #B99979",
"M  c #BFA165",
"N  c #BDA17B",
"B  c #C58346",
"V  c #C68548",
"C  c #CB8D4D",
"Z  c #D48D4A",
"A  c #C6924D",
"S  c #C48756",
"D  c #CA8C52",
"F  c #C38C5C",
"G  c #D28F51",
"H  c #CD9453",
"J  c #C39558",
"K  c #CC955A",
"L  c #D69856",
"P  c #D2955D",
"I  c #D39A5B",
"U  c #CAA449",
"Y  c #CAA757",
"T  c #D6B35A",
"R  c #C58961",
"E  c #C89766",
"W  c #CD9A6C",
"Q  c #D49A65",
"!  c #D49C6A",
"~  c #C98F72",
"^  c #C59A74",
"/  c #C69A77",
"(  c #CC9B72",
")  c #D89A77",
"_  c #C8A663",
"`  c #D9A568",
"'  c #D8B569",
"]  c #C7A576",
"[  c #CAA37A",
"{  c #D6A877",
"}  c #DDAC72",
"|  c #CFB778",
" . c #DAB676",
".. c #E4A867",
"X. c #E1BB67",
"o. c #E7B97C",
"O. c #8B8885",
"+. c #999587",
"@. c #A79888",
"#. c #B09B8D",
"$. c #B8A288",
"%. c #A8A59D",
"&. c #B9A695",
"*. c #B6AEAA",
"=. c #B2B1AA",
"-. c #BABAB6",
";. c #C79E86",
":. c #C8A988",
">. c #D9A987",
",. c #CBB28A",
"<. c #D6B68C",
"1. c #C5AA94",
"2. c #D6AC96",
"3. c #CAB298",
"4. c #D7B499",
"5. c #E2AC86",
"6. c #E7B789",
"7. c #E4A991",
"8. c #E7BD9C",
"9. c #F1BD94",
"0. c #C8B8A8",
"q. c #D9BEA4",
"w. c #C4BBB5",
"e. c #E3BEA4",
"r. c #EEC589",
"t. c #E8C69A",
"y. c #F7C69B",
"u. c #D9C1A8",
"i. c #C6C2BA",
"p. c #CDC6BF",
"a. c #D3C9B5",
"s. c #D6C9B9",
"d. c #E6C6A5",
"f. c #EDCCA4",
"g. c #E3C5AB",
"h. c #ECC4AB",
"j. c #EDCCAC",
"k. c #F6C9A9",
"l. c #ECD5AB",
"z. c #F2D1AC",
"x. c #FBD4A9",
"c. c #E7CBB5",
"v. c #E6CCBA",
"b. c #F1CCBE",
"n. c #EBD4B5",
"m. c #E4D3BD",
"M. c #E9D5BA",
"N. c #FBD7B7",
"B. c #F3DDBD",
"V. c #FEE5B7",
"C. c #C8BDC1",
"Z. c #CBCAC3",
"A. c #C9CBC9",
"S. c #D4CECB",
"D. c #D6D3C8",
"F. c #DCD4CE",
"G. c #CDCFD6",
"H. c #D5D5D3",
"J. c #DAD9D6",
"K. c #D6D7D9",
"L. c #DCDDDA",
"P. c #E7D8C8",
"I. c #F4DAC3",
"U. c #FCDCC3",
"Y. c #F6DCC8",
"T. c #E2D5D3",
"R. c #E4DBD5",
"E. c #EDDED2",
"W. c #E3DFDB",
"Q. c #DFE1DE",
"!. c #E5E0CB",
"~. c #FAE5C4",
"^. c #F4E3CC",
"/. c #FCE4CB",
"(. c #FFECCD",
"). c #FFF3CB",
"_. c #EAE3D5",
"`. c #E1E1DE",
"'. c #EBE4DB",
"]. c #E3E9DD",
"[. c #EBEADD",
"{. c #F5E4D2",
"}. c #FDE5D3",
"|. c #FEEBD4",
" X c #F2E8D8",
".X c #F4ECDD",
"XX c #FDEDDC",
"oX c #FFF2D5",
"OX c #FBF7D9",
"+X c #FDF3DC",
"@X c #D8DEE2",
"#X c #E6DFE1",
"$X c #DFE2E1",
"%X c #DEEEE3",
"&X c #DFE3F0",
"*X c #DCF3FA",
"=X c #E3E5E3",
"-X c #EBE4E3",
";X c #E5E9E6",
":X c #EAEAE6",
">X c #E5E5EA",
",X c #EAE7E9",
"<X c #E7EAE9",
"1X c #EBECEA",
"2X c #F1E6E6",
"3X c #F2EBE4",
"4X c #FBEDE3",
"5X c #F2E7EA",
"6X c #F2EDEC",
"7X c #FAEEEB",
"8X c #E4F1E6",
"9X c #ECF1E5",
"0X c #E4F2EE",
"qX c #EDF1ED",
"wX c #F4F2E4",
"eX c #FDF3E3",
"rX c #FFFBE5",
"tX c #F3F2EC",
"yX c #FDF4EB",
"uX c #F2FAE8",
"iX c #FEFBEC",
"pX c #E7EDF1",
"aX c #E6EAF6",
"sX c #ECEEF2",
"dX c #EDEFFA",
"fX c #F2EDF2",
"gX c #F9EDF3",
"hX c #E5F3F5",
"jX c #EDF2F2",
"kX c #ECF9F4",
"lX c #E4F4F9",
"zX c #ECF3FB",
"xX c #E5F8FA",
"cX c #EBFCFC",
"vX c #F3F3F2",
"bX c #FBF4F3",
"nX c #F2FAF3",
"mX c #FEFCF3",
"MX c #F3F4FB",
"NX c #FCF5FC",
"BX c #F4FBFE",
"VX c #FBFCFC",
/* pixels */
"=X`.-X;X:X,X;X:X<X<X1X:X1X1X1X1XpXpXsX1X,X2X,X3X2X2X3XfXdXdXaXlX0X%X8XuX8X8XqX[.3X,X,X1X1X>X;X&X;X=X=XQ.Q.Q.Q.Q.Q.Q.Q.Q.Q.Q.L.J.",
"=X=X=X;X;X<X-X;X<X:X,X:X:X1X:X1XpXpX1X1X,X,X3X3X6X6X,X,X,XdXzXzXkXqXqX<XQ.;X1X:X1X1X1X1X<X>X<X;X;X%X=X=X=X$XQ.Q.Q.Q.Q.Q.L.L.J.J.",
"`.=X-X;X<X-X;X<X,X:X<X1X1X1X1X1X1XpX<X1X1X1X6X1X,X1X1X,X1XMXVXBXVXnXvX=XK.=XvXvX1X1XpX1X1X;X;X;X;XQ.=XQ.$X`.Q.Q.Q.Q.Q.Q.Q.J.Q.J.",
"=X=X;X-X-X;X:X-X:X:X,X,X:X1X1X,X,X1X1X1X1X1X1X1X;XfXvX<X6XVXVXbXtXtX6X-XK.=XdXdXdXsXsXqX<X:X;X[.;X;X;X=X=X`.%XQ.Q.Q.Q.Q.Q.Q.Q.J.",
"`.=X-X;X-X-X;X:X:X:X:X1X:X1X1X3X1X:X:X1X1X1X1XhXpXvXvX1X3XiXiXeXyX7X7X-XT.#XdXaXdXdX1X1X;X[.[.[.].=X;X=X;X`.Q.Q.Q.Q.Q.Q.Q.Q.J.Q.",
"=X=X=X;X;X<X<X-X<X:X1X:X:X1X1X:X3X[.:X9XhXhXhXhXzXkXjXuXyXyXrXuXeXXX4X_.T.,XMXdXzXzXjXpX9X:X[.[.=X;X=X].;X`.;XQ.Q.Q.Q.Q.Q.Q.Q.K.",
"W.=X-X;X:X<X:X<X:X<X,X1X:X1X1X:X.X[.:X1X1XhXlXlXlX1XqXnXeX^.M.V.j.d.0.3.0._.NXMXzXzXjXqX1X:X[.[.:X=X=X;X;XQ.$XQ.Q.%XQ.Q.Q.Q.Q.J.",
"=X=X=X-X;X-X;X-X,X:X:X1X,X1X1X3X[..X:X:XhXhXlXlXlX0XqXiX Xu.$.n s a t p v s.yXtXvXjXjXqXqX1X[.:X:X=X;X=XQ.;X;XQ.$XQ.Q.Q.Q.Q.Q.Q.",
"=X=X=X=X-X;X-X;X-X;X-X<X<X1X1X3X[.[.:X1XqXhXhXhX<X0XmXiX^.V.n <. .Y J a | ).OXOX;XnXmXqX,XtX7X-X:X:X;X;X$X;X=X;X;X%XQ.=XQ.Q.Q.Q.",
"`.`.#X-X;X;X;X<X-X;X:X,X,X1X1X1X.X3X3XqXqXqXhXjXBXuXwXOXOX).N _ T U U s | V.).uXiXnXvXtXfXfXfX6X:X:X;X=X;X=X=X=X=X=X;X=XQ.Q.Q.Q.",
"=XW.=X=X-X=X;X-X;X:X;X:X1X1X1X3X1X3XtXqX1XqXqXkX9XiXOXOXV.u.] ] X.T T T | t.l.(.iXeXeXtXbX6XfXvX1X1X=X;X;XQ.].=X=X=XQ.Q.$X`.%XQ.",
"=X=X=X=X;X;X;X-X-X;X<X<X:X1X1X1X1X6XvXfX1XtXtXiXiXiX^.n.,.k l  .X.T T _ Y M ] ,.~.|.eXbX6X,XsXfX1X1X=X;X;X;X=X=X=X=X;XQ.`.Q.Q.Q.",
"=X=X=X=X-X;X-X;X:X:X:X1X1X1X3X1X1XfXvXvX6XyXiXiXrXM.3.,.<.<.t.t.r. . .r.6.| [ :.,.B.eXiXyX,XqXsX9X1X<X;X=X=X=X;X;X`.;XQ.$XQ.Q.Q.",
"W.=X#X=X=X;X;X-X:X:X,X1X1X1X1XjXpXaXvXvXbXyXeX+X~.3.:.,.z.V.~.V.V.l.r.x.x.y.6.) k 2.Y.eXyXyXvXqXjX1X1X;X=X=X=X;X;X;XQ.;X=XQ.Q.Q.",
"=X`.=X=X-X;X-X<X<X:X,X1X1X1X6XsXzXdXjXMXbXyXXX}.g.N d.t.f.f.h.k.l.g.<.e.x.9.7.j 9 h 1.Y.mXiXqXnXqX1X1X:X;X=X=X=XQ.;XQ.$X=XQ.Q.Q.",
"#X=X=X-X;X;X<X-X<X<X1X1X1X1XtX1XMXMXdXgXbXyX}.U.p + >.,.d.z.z.N.d.g.3.h.N.N.k.( 0 , 9 c.iXrX;XkXqXqXqX;X;X=X%X;XQ.;X;X=X$X$X$XQ.",
"=X=X=X;X;X<X<X<X<X,X:X<X1X1X1XsXfXgXdXMXNXbX}.( 7 R 5.k.U.U.I.e.g.2.:.8.x.N.y.9.s 6 < b rXrX:XjXqXvX1X1X<X;X=X;X=X=X=X$X$X$X$X$X",
"=X=X;X$X;X>X1X<X<X1X1X<X1X1XqX6X6XbXzXBXMXbXN.0 8 R 7.e.I.I.I.e.2.~ j / 9.k.9.{ F 6 @ h oXrX9XjXqX1X1X1X<X<X<X=X=X>X=X$X=X$X$X$X",
"=X=X=X;X<X<X<X<X<X<X<X<X<X1XqX1X6XbXzXBXMX4Xj.4 7 R 7.e.b.P.e.4./ j 9 j [ 6.{ ! F 6 @ p ^.rXqXkXjXqXqX>X<X=X;X;X;X%X>X$X=X$X$X$X",
"$X=X>X;X;X<X<X<X<X<X:X1X1X1X1XqXwXtXkXcXnXyXb.4 0 R 7.e.b.e.2.;.j a S a a ~ W Q R y @ 2 P.yXnXkXsXjXqX1X<X;X>X=X$X;X$X>X$X$X$X$X",
"$X;X=X;X;X,X<X<X<X1X<X,X1X1X1X1X9XuXkXcXnXrXj.6 7 S >.e.U.b.2.~ 0 V S 8 8 F Q Q F 9 @ 2 E.mXnXzXjX1XjX<X<X<X;X>X;X=X=X$X$X$X$X$X",
";X$X>X=X;X<X<X<X<X<X<X<X1X1XqXqXuXuX0XkXkXeXj.< 7 0 ) 8.U.b.2.a B % $ 8 D P P Q F 8 < 3 Y.mXMXzXjXvX1X1X<X;X;X>X$X=X=X$X=X$X=X@X",
"$X=X=X>X:X<X<X,X1X<X<X<X<X1X1XtXOXuX0XcXkXeXf.& = 8 ) 9.k.e.>.S r $ $ ; Z G G D D 7 @ 3 Y.bXvXBXjXsX1X1X<X;X;X=X;X>X$X>X=X$X`.@X",
"$X>X=X;X<X<X<X1X<X<X<X<X1X1X1XqX9X9X0XBXVXiXz.5 $ : P 6.k.9.! : r - - r Z : = C D * O 2 Y.yXfXNXsXqXqX,X:X;X;X>X;X$X=X=X$X$X=X`.",
";X;X;X>X;X<X1X<X1X1X1X1XqX1X1X1XeX3XBXBX1XeXf.5 = : G o.r.o.L r - - - - ; ; : V 8 & O 6 U.yXtXVXjXvXjX1X<X<X<X;X;X%X=X$X$X$X$X$X",
";X;X>X;X<X<X<X1X1X1X1XpX1X1XvX6X6X2XBXVXBXmXz.7 # = D ..o.} Z ; r r : ; $ # = V B & o < U.eX2X3XfXjX1X1X<X<X;X;X>X>X;X$X$X$X=X$X",
"<X<X1X1X1X1X1X1X1X1XjXqXqXsXvX6XbX5XMXBXNXyXd.@ * e J  . .' A e % $ # = V 8 5 5 8 & o < I.iXyXvXtX1X1X1X<X;X;X>X$X$X>X=X=X=X$X$X",
"<X<X1X1X1X1X1X1XjXjX1XjXqXfXjXvXNXgXMXMXMX7Xu.9 5 * a ^ ] l t * 8 = & 4 < < < 6 u & . 2 M.4XtXvXqXjX1X<X<X>X=X=X=X=X$X$X@X@X$X$X",
"<X<X1X1X1X1X1XhXqX1XjXtXsXvXjX6X7XgXzXzXcXNX{.e.t.t.l.B.^.n.d.d.<.8.j.z.g.u.u.j.4.,.$.$._.wXjX1X1X1X1X>X;X%X>X>X=X=X>X$X=X=XL.@X",
"<X1X1X>X<X1X1X1XsX1X1XqX1X1XqXqX3X6XlXlXxXBXyX|.}.(.+XmXmXeX{.Y.v.v.E.4XmXiXXX|.+X|.Y.D.yXnXBXkXjX1X1X1X;X;X$X>X$X$X$X$XL.Q.$XW.",
";X;X;X;X<X1X1X1X1X<X1X,X1X1X1X1X:XtXlX*X*XlX1XXXeXeXyXVXBXpXL.S.W.T.H.L.jXNXtXtXwX X_.D.:X0XcX*XhX1X<X<X=X$X=X$X=X$X$X$X$X$XL.@X",
";X;X>X;X<X>X<X<X<X<X<X<X1X1X1X<X].qX*X*XxXlX<X7XeX7XbXNXBX&XA.-.. O.A.MXBXpX1XnX1X_.Q.D.;X0XcX*X1X1X<X;X;X=X$X=X=X$X=X=XL.$XL.`.",
"$X$X$X$X$X$X$X$X>X$X;X;X;X=X=X>X8X%X<XqXfXfX5X2XtXbXMXbXNX#XC.*.  S.K.jX>XBX>XsXbX'.T.p.9XqXkX0X<X1X;X;X=XQ.;X;XQ.$X=XQ.Q.Q.Q.L.",
"$X$X$X$X$X$X;X>X$X;X$X$X>X;X>X%X%X%X8XqX5X5X5X#XgXbXbXnXNX5XT.T.w.J.w.>XpXBXMXvX2XW.T.p.:X8XkXhX<X;X;X;X;X;XQ.=X$XQ.$XQ.Q.Q.L.Q.",
"=X$X$X$X$X;X=X$X;X;X=X>X%X>X;X;X%X%X;XqX5X5X2X#X6XvX6XbX6X6XR.R.s.D.`.VX,X@X1XsX`.R.T.p.[.;X0X0X0X:X;X;X=XQ.$X=X$X$XQ.Q.Q.Q.Q.L.",
"$X$X$X$X>X$X=X$X;X$X;X=X;X>X=X;X;X%X:X,X6X6X#X#XvXfX1XVXtXmX7X[..X.XyXvXsX>XMX-X3XR.F.p.:X;X0X0X;X=X;X=X=XQ.=X`.].$XQ.Q.L.Q.L.L.",
"$X$X%X>X>X$X=X=X;X%X>X>X;X;X;X<X%X%X;X:X3X,X#X@X1XbXjXVXQ.wXeXeX_.4X7X2XMXMX1X,X-XF.Z.-.:XqXcX>X1X;X;XQ.Q.;XQ.%XQ.Q.Q.Q.Q.Q.Q.J.",
"=X$X>X$X$X>X$X>X>X;X;X=X;X:X,X<X;X8X:X1X6X,X,X#X<XnXqX[.+.%.&.0.x &.0.Z.K.;XK.MXH.-.*.%.Q.<XjX%X;X:X;X;XQ.Q.Q.Q.Q.Q.Q.Q.L.J.Q.J.",
"$X=X$X=X;X%X;X>X;X>X;X>X<X<X<X:X8X[.:XqX6X2X=XQ.9XkX8XQ.+.@.@.x $.x g +.%.fXjXvXH.i.=.%.F.;X1X;X;X:X;X`.;XQ.$X;XQ.Q.Q.Q.Q.Q.J.Q.",
">X$X$X=X$X;X$X$X;X;X;X;X<X<X<X<X9X:X1X1X6X,X=XQ.kXkX8XiXD.eXP.q.g.I.eXT.O.1XVX;XtX_.Z.*.].8XkX9X<X;X;X=XQ.Q.Q.Q.Q.Q.Q.Q.J.K.Q.K.",
";X$X>X=X;X;X<X<X<X<X;X<X;X<X<X;X:X;X:X:X6X6X;X$XkXkX9X8X+.M.+XU.e.}.v.#.*.W.;XkX;XL.i.=.:XtX;X;X<X;X;X;XQ.Q.Q.Q.Q.Q.Q.Q.Q.J.Q.J.",
">X;X%X>X>X;X<X<X<X<X,X<X,X<X<X;X9X:X:X:X6X1X>X$XQ.8XuXOXf d h 2 < , w g w.6XmX$X=XL.w.%.].qXqXjX1X;X].Q.].Q.Q.Q.Q.Q.Q.Q.Q.Q.J.Q.",
"$X$X;X;X;X;X<X;X;X,X<X<X;X:X<X<X:X:X[.<XsX1X>X;XjXqX[.P.v d.|./.oX8.XX}. X6XBXQ.Q.Q.-.%.R.:X1X1X<X;X;X;XQ.Q.Q.Q.Q.Q.Q.Q.Q.Q.Q.H.",
";X;X;X>X;X;X;X;X<X:X<X<X<X<X;X-X9X:X:X:X6XjXpX<X%XuXiXrXn.OX/.>.0 9 /.}.iX3XnXjXQ.Q.A.=.:X1X:X=X9X:X;X].Q.Q.Q.Q.Q.Q.Q.J.Q.Q.K.Q.",
";X$X;X=X>X>X;X,X<X<X<X<X:X<X<X;X:X:X:X1XsXsXsX1XkXuXeXXX2.7.P > 0 ~ U.I.mX6X<X0X%X;XA.=.9XnX1X:X<X1X;X=XQ.Q.Q.Q.Q.Q.Q.Q.H.Q.H.H.",
";X=X>X=X;X;X<X>X;X<X-X<X<X<X<X:X[.:X3X1X1XvXjXjXVXwXeX^.;.0 R ) X < 2 2 Y.3X9XhX$X%Xp.%.J.:X1X6X1X;X;XQ.Q.Q.Q.Q.Q.Q.Q.Q.Q.Q.Q.Q.",
"%X>X-X>X;X;X<X<X<X,X<X,X<X<X<X;X:X[.1X6X1XsXjXkX=X:XmXyXU.~ > o 0 5.~ 2.eXR.A.-.Q.;XZ.%.J.:X1X,X:X;X;X`.Q.Q.Q.Q.H.Q.Q.H.H.Q.H.H.",
"=X>X;X;X;X;X<X<X;X<X;X;X:X;X:X;X:X9X1X1XvXsXjXbXmXyXeX}.}.Y.7.> Q k.e.}.iXF.1XqX;XkXJ.-.3XbXtX<X1X;X;X=XQ.Q.Q.Q.Q.Q.Q.Q.Q.Q.H.Q.",
"=X=X-X;X-X;X<X-X<X;X;X-X=X;X,X<XsX#XsXvXpX1XwX[.XX|.rX|.~.eX}.#.2.:.u./.eXtX1XbXT.S.w.*.,X5XdXfX1X<X-X=XW.L.#XQ.L.$XW.L.L.L.J.J.",
"=X=X=X-X=X;X-X;X;X;X-X;X=X;X,X<XfX>XaXfXjX3X].a.+X).(.j.1.P.yXP.B.z.n.!.E.P.F.T.5X{.C.w.5XgXgXaX1X;X=X=X=XL.L.L.L.W.L.L.L.J.J.L.",
"=X=X=X=X=X-X=X;X=X-X=X-X=X-X-X<X1X,X1XfXqXwXD.$.v :.f.n.d.(.iX+XoX).).~./.^.^.^.q.0.&.@.R.5X6X,X<X:X=X=X@XW.L.L.L.=XL.L.L.L.L.J.",
"#X=X=X=X=X-X=X=X=X=X=XW.=X=X;X<X;X1XvXqXtXtXm.v n l l l j b b 3 p a p p h k h 3 h 9 2 w v..XtX1X<X-X=X`.W.L.W.L.L.L.L.L.L.J.K.L.",
"=X=X=X=X=X#X=X`.=X=XW.=X=X=X=X=X`.6XvX1X9XeXm.v n s a a E ^ ] E u s s s s l s t 6 1 1 h m.OXqX;X:X-X=XW.L.L.L.L.L.L.J.L.K.L.L.J.",
"=X`.W.=X=X`.$X#XW.L.=X=XW.=X=X`.`.:XtXwXwXuXm.N p l P ` ` K J a i i i u u i i t u 6 t h B.OX9X%X;X;X=X=XW.L.J.L.K.L.L.L.L.K.J.J.",
"`.W.=X=XW.L.=X=X#XQ.`.L.#XW.W.=X[.].:XwXwXOXn.N l K I H I I ` ` J A i A A A C A e u t p n. X;X$X=X=XL.L.L.J.K.J.J.J.L.J.L.J.J.L.",
"=X=X=XW.`.=XL.W.$XL.Q.L.Q.W.=X`.:X`.].:XwX+Xc.n E ` I I ....I C H H J I L H C V V B u p n. X0X%XQ.W.L.J.K.H.H.H.K.L.J.J.K.L.J.J.",
"=X#X=XW.W.$XW.W.L.`.W.L.L.L.W.L._.`.:X[.9X+Xn.n l K H L L ....` I I K K P L G G B S 5 p c. XQ.%XJ.J.H.H.H.H.H.H.H.H.H.H.H.K.H.H.",
"`.=X=X=X=X`.=X`.W.=X`.`.=X=X=X`.`.].[.[.:XeXm.m l K I ` ..` I H ` ` ! ! ! ! Q P P E 9 b v.-XG.G.K.H.H.H.S.G.S.H.K.F.H.H.H.F.H.K.",
"-X;X=X=X=X=X=X=X>X=X=X=X=X=X=X`.].'.:X:X.XwXP.1.l E W ` ..} { { E W W ( ( ! W R a 0 2 v P.`.K.&XH.H.H.H.H.H.H.H.K.J.J.K.K.J.J.H.",
"-X;X;X-X;X;X;X:X=X;X-X=X-X;X;X-X[.[.:X1X:XeXE.4.m m W ! ] { _ ] W ( ( / / / ^ m / c h &.F.R.K.@XK.J.K.H.J.J.J.J.J.J.L.L.J.L.J.J.",
";X-X<X:X:X:X<X:X:X:X:X:X-X:X:X:X:X[.uXqX3XtX4Xs.z c m ( { :.] N ( W / / ;.$.b v l h z 3.F.Q.K.$X%X=XW.$X=X`.=X=XL.W.W.L.W.L.L.L.",
"-X;X:X<X:X1X,X,X:X1X,X:X<X<X<X:X1XwXtX1XsXfX7XP.1.$.b h h k v N ^ ^ m b v v x g . q v a._.:X0X0X<X<X<X;X:X:X-X;X;X;X=X=X#X#X#X$X",
";X-X-X<X:X<X:X:X,X1X1X1X1X1X,X1XwX:XtXjXsXvXbX2X}.v.3.$.g d g z p p 9 d d f w q a.a.P..XwXuXkX;XqX1X,X1X:X,X,X1X,X:X-X;X;X=X=X=X",
"-X;X:X<X:X1X,X1X1X1X:X1X3X1X1X1X1X1XvXsX>XMXbX5X4XXX|.}.oXoX X^.V.N.N.~.^.+XtXyX.X.XrXOX[.9XnXqXtX1X6X1X:X:X1X<X,X<X<X:X:X-X=X=X"
};
