/* XPM */
static char *out[] = {
/* columns rows colors chars-per-pixel */
"64 64 254 2 ",
"   c #070706",
".  c #070807",
"X  c #0C0C0B",
"o  c #120E0C",
"O  c #190E0D",
"+  c #0E100E",
"@  c #11110E",
"#  c #18100E",
"$  c #0C0D13",
"%  c #0C0E1B",
"&  c #140E15",
"*  c #0E1113",
"=  c #0D121B",
"-  c #131313",
";  c #1B1514",
":  c #161815",
">  c #191915",
",  c #14151B",
"<  c #1A161C",
"1  c #161A1B",
"2  c #1B1B1C",
"3  c #230F0E",
"4  c #310F12",
"5  c #251618",
"6  c #231B1C",
"7  c #361617",
"8  c #1D2214",
"9  c #1E201E",
"0  c #24251B",
"q  c #36261C",
"w  c #2B3418",
"e  c #343C16",
"r  c #0D0D28",
"t  c #100F2E",
"y  c #0D1322",
"u  c #0E182A",
"i  c #141523",
"p  c #151A24",
"a  c #1B1C23",
"s  c #151629",
"d  c #151B2B",
"f  c #1B1D2B",
"g  c #0E1637",
"h  c #141B33",
"j  c #171C38",
"k  c #221D24",
"l  c #291925",
"z  c #221D2C",
"x  c #371826",
"c  c #2B1F38",
"v  c #1E2224",
"b  c #182629",
"n  c #1C222C",
"m  c #152233",
"M  c #1C2233",
"N  c #16253A",
"B  c #1C233B",
"V  c #1B3539",
"C  c #222324",
"Z  c #2B2324",
"A  c #282A25",
"S  c #23242A",
"D  c #2A252C",
"F  c #242A2C",
"G  c #2A2A2C",
"H  c #362828",
"J  c #342C2C",
"K  c #2D3227",
"L  c #37332C",
"P  c #232532",
"I  c #2B2434",
"U  c #252B33",
"Y  c #2B2C33",
"T  c #24253B",
"R  c #232B3C",
"E  c #2C2D3A",
"W  c #322D34",
"Q  c #392D30",
"!  c #322E3B",
"~  c #2C3234",
"^  c #273539",
"/  c #2D323B",
"(  c #333234",
")  c #3B3436",
"_  c #33343C",
"`  c #333A3D",
"'  c #3B393C",
"]  c #480F16",
"[  c #4A181C",
"{  c #4E261A",
"}  c #6B361C",
"|  c #591C25",
" . c #621A26",
".. c #492A2E",
"X. c #563926",
"o. c #453839",
"O. c #533636",
"+. c #6E2D30",
"@. c #394719",
"#. c #354B2D",
"$. c #37443A",
"%. c #475A1C",
"&. c #50551B",
"*. c #50671C",
"=. c #5A761D",
"-. c #627C1E",
";. c #484C31",
":. c #574436",
">. c #6C4B30",
",. c #526928",
"<. c #5A7822",
"1. c #627D20",
"2. c #151A45",
"3. c #10164C",
"4. c #2A1D4B",
"5. c #192747",
"6. c #1A3649",
"7. c #1B2956",
"8. c #1A3658",
"9. c #272A46",
"0. c #372A4C",
"q. c #2C3443",
"w. c #2A3946",
"e. c #2D344B",
"r. c #333543",
"t. c #393443",
"y. c #353B43",
"u. c #3A3B43",
"i. c #32354C",
"p. c #353C4A",
"a. c #3A3D4A",
"s. c #252859",
"d. c #293956",
"f. c #373B57",
"g. c #343C54",
"h. c #221F6B",
"j. c #1A3665",
"k. c #1A2378",
"l. c #183A73",
"z. c #242C64",
"x. c #342A6D",
"c. c #243768",
"v. c #273876",
"b. c #463C45",
"n. c #4E3C50",
"m. c #653A4E",
"M. c #402B74",
"N. c #7C3E6F",
"B. c #1C4A4C",
"V. c #1D4A57",
"C. c #2A4548",
"Z. c #3B4245",
"A. c #364549",
"S. c #3C434C",
"D. c #3D4A4C",
"F. c #284658",
"G. c #3C4353",
"H. c #384757",
"J. c #335451",
"K. c #375359",
"L. c #38674D",
"P. c #1D4269",
"I. c #1D596C",
"U. c #1B4878",
"Y. c #3B4867",
"T. c #24586A",
"R. c #2D4F70",
"E. c #3A4676",
"W. c #3D5672",
"Q. c #1C6277",
"!. c #38706B",
"~. c #236578",
"^. c #444245",
"/. c #42444B",
"(. c #484748",
"). c #594647",
"_. c #434B55",
"`. c #444A5B",
"'. c #484958",
"]. c #49525B",
"[. c #545156",
"{. c #6D494C",
"}. c #436554",
"|. c #464C66",
" X c #504A6C",
".X c #495468",
"XX c #565966",
"oX c #545A6B",
"OX c #4A5977",
"+X c #525C73",
"@X c #52597B",
"#X c #6F5074",
"$X c #5A616D",
"%X c #496675",
"&X c #5A6578",
"*X c #636977",
"=X c #677079",
"-X c #841F2B",
";X c #8A2D2F",
":X c #94263A",
">X c #834C2E",
",X c #863353",
"<X c #855F45",
"1X c #81587A",
"2X c #698B1E",
"3X c #688822",
"4X c #6F9123",
"5X c #729324",
"6X c #1B2587",
"7X c #243588",
"8X c #2239AF",
"9X c #4B1F8C",
"0X c #4A228F",
"qX c #5C1FA1",
"wX c #1A4A84",
"eX c #1C5090",
"rX c #344987",
"tX c #2F5090",
"yX c #1B718B",
"uX c #246A83",
"iX c #316F91",
"pX c #1D5BA5",
"aX c #324BA7",
"sX c #215CA7",
"dX c #1F63AB",
"fX c #2569B7",
"gX c #434A8F",
"hX c #485985",
"jX c #705389",
"kX c #576785",
"lX c #4D6B95",
"zX c #566995",
"xX c #64758D",
"cX c #686F90",
"vX c #667798",
"bX c #4451AF",
"nX c #516CA1",
"mX c #5576A9",
"MX c #687BA5",
"NX c #717FAC",
"BX c #2645C7",
"VX c #2B75CC",
"CX c #6B8199",
"ZX c #73819B",
"AX c #5785B5",
"SX c #7887A8",
"DX c #6D88B3",
"FX c #768AB4",
"GX c #7A95C5",
"HX c #8993AB",
"JX c #8798B7",
"KX c #839BC8",
"LX c #8EA7CE",
"PX c #A3B1CA",
/* pixels */
"E 1 $ X $ m 5.m = X + v d.Y.d.n - - - G a.G._ F : 8 0 K K K q 6 9 A r.t.i.i.I > - ; 7 [ 7 2 @ o * m 7.7.m + X @ 5 7 ] 7 O X * k ",
"R - X X = 5.6.6.u X + v g.Y.H.R 1 - @ ( |..Xa.I > > > G / W H 0 9 G y.D.G._ C > < 2 6 x 7 ; - + - h j.8.N + X @ 5 x ..x O $ * k ",
"C + X X p 6.P.6.y + : U e.g.H.R 2 @ @ Y .XkXg.Y : > 0 a.oX|._ 0 > F / A.C.^ C - 2 D _ t.r.a - + - m 8.c.5.= X + l b.n.0.a X X 2 ",
"2 X X + m P.P.8.d + * n w.d.d.R 1 + @ _ &XcX@X/.0 2 D G.@X.Xa.2 2 0 ` F.w.U 9 > 2 F g.c.e.P - o * h 8.j.7.p + X < a.OXf.C X X - ",
"@ X X * 5.P.U.8.u * X b 7.8.6.d - @ : t.oXkX+XS.S C ! _.|.`._ C > 2 / G.S.U 2 - ; < 5.z.s.h - o o p 8.j.8.m * X o c 0.c - X . X ",
"+ X X = 6.P.P.N - + * 5.P.8.B p @ @ @ C t.u.! D 2 > F e.x.c.9.2 > : C ` G.p.C - - i 4.7.7.j $ o X d 5.7.5.h = X * c x l & X X X ",
"X X X 1 6.U.8.u + + - 8.P.6.m : @ @ # q q Z 0 < ; : v 9.d.s.9.a > : 9 F a.G._ : ; d 5.h.7.h - * , j 8.7.N i $ X - r.`.q.C X X X ",
"X o X v 8.P.5.y X + - 6.l.8.d - @ > q :.>.X.q : ; < B s.z.s.P 2 > > q..X@X`.Y : - s 7.v.z.2.- X * d 4.c f * X X X a E I 2 o X X ",
"X X X = N 9.M - @ @ , 8.wXU.R - @ > q X.>.X.q : - < 9.z.s.B a : : 2 y.kXxXY.U : ; p 5.v.7X3., - & & l x 2 + X X X o o o X o X X ",
"@ + - - 2 l < - @ @ a P.uXwX5.; @ ; q { [ 0 > : - < 5.s.s.B 2 > 2 F C.%X%XK.b : : < s.k.v.7.< * & < l x 5 + X + X O 3 3 o X X X ",
"- U q.E D W C - - - m Q.uXU.N - - - 6 Z a 2 2 - ; 1 B z.s.5.a > 9 b C.L.J.C.b < ; i 7.v.z.2., - & l l 5 < # X X X O 4 ] 4 O X . ",
": E w.~ F Y 2 - o + m 8.U.8.m : * - a v n v < : : : j s.z.B f > 1 8 L ,.,.#.0 : < < j 7.5.d - - , C K < * * + X X O 7 ] ] 3 o X ",
"- 2 C 9 v v - X + * b 8.8.6.f , - - U G.r.U 2 : ; : M s.s.9.2 : : > e %.;.@.0 : ; : f j f < - - - F ~ b b 1 * X X o 4 7 4 3 o . ",
", C 0 C S v - * @ - N P.P.6.1 - - 1 u.oXoXy.C - : 2 T c.gXs.z < > < K #.$.( 9 > ; 1 a j j j 1 - - 2 V B.F.B.V = X X 3 4 4 4 o X ",
"/ p.Z./ / ~ 1 $ - 1 8.U.P.5., - : F H.$X+XG.2 ; - S E.mXzX|.U 6 > 2 ~ D.].` v K K a f 5.9.j < - - - B.~.~.Q.V 1 o - 5 4 7 5 # X ",
"E G.`.A./ S - - - b P.R.P.B 1 - v p.D.Y..X/ 2 > - k E.zXgXi.S 2 2 C ^ (.D.#.v ( Y C T T c l 2 - - - B.Q.uXV.b * - S t.! ) ~ C o ",
"U |.OXG.U 2 - - - a 6.d.s.b : 1 9 y..X%X.Xq.- - : 9 e.E.E.i.z 2 8 C ~ J.J.^ b S S a r.b.O.H 9 : - : 6.~.uXV.p + * S r.p.p./ S * ",
"Y +X&X`.F , : < < p a Z D 2 2 < C .XxXSXvXG.2 : < 0 E f.E.i.U C 9 A ` A.A.` S v v P H.+XoX'.A < 2 b F.uXiXuXV $ + 1 V w.C.V b @ ",
"C r.u.Y 2 : : < T F.F.w.q.S 2 2 G +XFXKXSX|.k : 2 S p.x.E.f.i.Y S F A.H.A.^ v v v M d.|.|.S.U 2 9 ^ T.~.uXQ.V + * 9 V V.V.6.b * ",
"a j M a : : 2 v f.iXlXtXg.U v v A &XFXFXDX|.S 2 9 F e.E.Y.f.i.D D / D.K.C.F v 0 9 S 9.e.i.U a 2 2 b F.Q.I.B.b + + * b F.%XF.w.1 ",
"h.x.s.c 1 1 2 v w.Y.R.Y.w.F C C S `.vXvX@XA.v a C F r.f.f.r./ D Y q.H.K.C.U S a C S U d.i.E v 2 v M T.~.Q.V.m - + X p C.zX%XH.S ",
"9X9XM.4.a 2 2 C F ^ K Q J G F F F r.`.`.A.~ F C F q.H.Y.p.W G D / p.K.W.K.^ F k F U q.d.9.Y S a v ^ ~.yXyXQ.6.= * * b B.W.W.Y.v ",
"9XM.s.z 2 9 C J ;.>.:.O.( W ~ ~ / D.`.G.y.D C A Y p.|.OXY.t.I D J y.D.K.F.C.^ F P q.w.i.E Z Z k F V Q.yXyXuX6.1 * : V B.B.B.B.b ",
"qXM.x.S 2 9 A :.>.<X{.:.) ~ ~ ~ y..XkX+X`.W A A E A.|.hX.Xg.E D Y ' $.Z.A.w.q.U U / w.t.( H C 0 S w.I.yXyXuXV.1 * * 8 V L.L.L.w ",
"qXqXx.l a v G :.>X<X<X:.` ~ ^ / S.&XvXxXOXZ.F A G a.|.@X.Xf._ Y / ` $.J.A.w.^ V E ~ q.u.b.Q Z C G C.~.yXyXiXQ.b - + + w <.3X,.e ",
"qXqXM.t v C J O.{.{.{.(.` ` $.A.D.&XxXkXoXa.Y S G u.`. X|.a.t.! _ S.(.J.A.` P F E E / t.o.J Z Z G J.!.iX~.T.6.b - * + w <.4X3X@.",
"9X0XM.l v S Q O.m.n.(.;.y.A.$.Z.D.oX$X.X_.` G A ~ u.S.`.'.S.r.E ` S._.D.a.! U P U E E ! ) J D S G $.}.!.J.9 f , - + + 8 <.5X5X<.",
"0X9X4.s C F I b.m.m.n.a.Z.Z.y.S.].oXoX].u.( Y G ( a.`.XX].G.r.E r.Z._.D.t.! Y P U E E t._ J Z S S ` }.L.$.0 5 , - + - 8 *.4X4X=.",
"9XM.9.a C F Y n.N.#X Xb.Z.Z.Z.D..X$XoX'.' Y D Y t./.XXoXXXS./ / _ r.Z./.u.' / E E E t.t.t.( Y Y G ~ ;.(.b. . .x : + : 8 %.1.3X<.",
"9Xh.P k v U F. XjXjXOX_.D.S.D._.].XXoX].S.! Y Y a.'.XXoXXX_.y.E / r.u.^./.S.p.q.E ! t.t.u.y._ ~ U ~ O.+.-X:X:X[ - + : w %.<.=.<.",
"9X4.c f U F.iXnXnXnXhXH./.S.D._.XX*X*XoX`.a.! _ b.XX+X*XXX].Z._ E / u./././.p.q.! ! ( ( _ ` / U U Y ..+.+.:X:X| : - - 8 @.%.@.@.",
"M.4.z f U R.tXnXnXnXhXK.D.D.S..X=XxXxXoX_._ Y _ p.].$X$XXX'.y._ _ ~ ` S.^.a.a.t.! ! ! ( ) _ ^ ~ U / ..+.+.:X:X .; - * 1 %.<.=.%.",
"4.P C v U ^ A.G.|.[.'.D._.D._.xXHXJXxX$XZ.~ A G t.(.XXXXXX'.y._ / ~ ` Z.^.b.u.y.r.W ) o.) ! / F U ^ ..m.,X,X:X| 5 * + 8 %.3X-.&.",
"4.v v v S ~ q.$.{.{.[._.D.D.].HXPXPXHX&XZ.A A G b.XX$X*XoX'.a._ _ / _ ` ^.' y.r.E E b.).).b.' F F F J |.cXjXn.0.1 - + @ w =.*.w ",
"j v b C U H.W.W. XXX'.D._.].$XZXPXPXJX&Xp.Y S ~ b.oX*X=X$X'.a.r.` ` r.u.S.Z.y.q.! _ (.).{.).` ` ^ F F Y.vXSXcX Xj @ + * 8 *.=.%.",
"q.a v v F.nXAXmXnXkX|.D.K.=XZXSXSXJXFX&XZ.G U _ '.oX*X=X$X'.u.u.` ` ` ^.(.Z.u.a.q.E b.n.m.).^.( ~ F G ( XX#X1X{.l @ + + 8 %.3X4X",
"q.v a v H.nXAXAXAXlXK.Z.D.$XZXZXZXSXZXoXy.G Y y.].XX$X*X+X[./.a.y.' y.b.;.^.' u./ E ( o.b.).;.~ G b J ..+.+.:X-X[ @ + + @ @.5X5X",
"S a v v ~ Y.OXOX+X`.Z.Z.S.S.XX$X*X$XoX_._ F G ' /.[.[.XX[.(.b.i._ / ~ ;.(.b.' _ / / _ b.b.b._ ~ U F J +.-X:X-X-X] @ + + - %.5X5X",
"M 1 2 v F ~ ` t.(.^.u.Z.` $.` / ` ) ) ( K G A W ' u.(.(.(.^._ ~ E G Y ' ;.o.' W Y F L o.b.O.( U F b K } ;X;X;X-X{ + @ X X @.2X2X",
"v 1 1 2 U ^ r.o.b.o.y.` ` A.H.A./ G A A C G G L ) ;.(.(.' u.r.E F A G ( o.) ( U D C G o.:.O.) F F b H >.>X} >X>X} > X X X 8 %.2X",
"1 1 C q..X%XkX%X|.y.` ` ^ D.kXlXY.^ D C C A G ( ' $.^./.b.y.r.P A F J L o.L G S Z S I Q ...._ U n C Z X.X.{ { } { @ X X @ w %.=.",
"- 2 G ].&XvXCXCX%XA.^ ~ / _.CXSXlXW.w.C 6 C ( ' /./././.a.r.r.T S A Q L L H Z S a v S H H Q ) E F v k 0 0 ; 6 q 7 # + X 8 %.=.=.",
"- 9 _ '.%X.XoX$XoXA.U ~ ~ y.&XxXxXkXG.S 9 9 ~ ' /.(./.b.' _ _ E Y S D G G G S S S a Z D H H Q G v v 1 1 - @ - 3 3 # X X 8 *.2X=.",
"+ C S.%X%XOXW.H./ G F F F F ( u.u.' W k 2 9 G G _ u.' ! J J ) W D S G ~ ( ~ Y n C S D ! o...Q D v a 1 1 v n b v 5 @ X X # e %.&.",
"- C Z.$XxXxX&X]./ v F S S S S C H x 7 > 1 < v C F G H H Z H H J D D D _ Z.y./ n a v L O.{.O.O.H a : 1 R H.W.OXR.p.p X X X @ 8 7 ",
"X - C ' ].]._.Z.C v a 9 v U w.E G J 6 - - - 0 F Y I z k 6 k l l Z A G Q _ _ ~ P f C H +.+.+...Z 1 : v p.%XkX&XkX.XE X . X . o 3 ",
"X X X - 2 > > 6 : - , : F .XvXlX@XH.f + - < ~ ' /.S.t.I z z k 2 5 0 6 0 G G S f < < 5 7 { { 7 ; - - : S w.G.|.|.w.b X X . X X ; ",
"X X X X X ; 4 4 @ * + - r.vXJXJXFXhXP + + 2 ;.(.[.XX.Xg.q.T z 2 : ; ; 5 6 k k 2 , , , O ; 5 5 3 o X = ^ .XkXxXkXOXi., X . . X t ",
"X X $ % y m l 4 # + X , _ cXHXJXSX@Xf + @ : ( ;.[.XX X`.f.e.T z a 6 < 5 6 6 k < , , i k k l 7 4 O X a H.cXZXSXZXvX+Xz X . . % 3.",
"X u 5.7.l.eXl.s $ X 2 i.Y.kXvXDXvXE.i X X @ l J b.b.f.H.|.f.g.q.I a < k S D 2 - , , T E.hXgX|.0.< X 2 t.[.kXvXzXcX+XS X . . $ t ",
"X 5.U.eXpXfXeXN X X F @XMXFXFXFXSX|.f X @ > 0 Z D I ! i.G.G.H.g.E a a k Y Y S , $ & d.mXGXGXDXlX9.X X X S hXDXDXmXzX9.$       % ",
"$ 2.U.eXeXeXj.u X X , `.vXNXFXMXkXi.- X X > Z G D l z M q.t.a.y.Y z k a D D k - $ % f.DXLXKXGXvXe.X X X n nXGXKXGXNXf.X .       ",
"y j.U.l.j.j.3.$ X X . z v.aXbXgXv.t $ X o > G D U M s s j E r.E S k f k C S a & * & T kXFXJXSX+Xn X . . , OXFXKXKXvXq.X . . % t ",
"7.pXdXwXwXl.5.$ . . . r h.8XBXBX8Xk.t X X > C U T 9.h s 5.9.9.M f i 2 a k a , & $ $ i z a.'.a.k X X . . . T hXcXkXE.i . . % N j.",
"j.fXfXwXU.P.u $ . . . t k.8XBX8X8Xk.h . o > 0 S U T j j 5.5.5.M f p < 2 a i - = % y s s < % X . . . X . X h c.v.c.z.g X   $ 5.U.",
"8.pXeX7.3.u $ . . X . 3.k.6X6Xk.h.3.% . + > k D I M f f 2.5.B M M f p < 1 , , % % y h T T f < * X . .     t j.v.c.c.j X   X i 6.",
"j.dXpX3.g % . . . $ t k.7Xk.3.2.t % $ . % 2 F U T P f s B N b M T j p ; , - $ = % y m f.Y.Y.i.j $ . . .   s hXnXhXE.e.i   . . $ ",
"j.dXdXwXj.g $ .   $ 2.aXaX7X7.2.t % $ $ , S / e.q.U z h j h h f M f i ; & & = = = y B Y.OXOXW.q.s $ . .   c MXKXKXNX@XU .     . ",
"7.pXpXU.j.u $   . $ j v.aXtXv.7.2.s $ $ , D i.A.p.E P s s h f p p f < , < - , $ = = j f. XOXY.9.d $ . . $ 9.nXKXKXKXvX! .   .   ",
"l.pXpXwXj.y . . X & s j.7XrXrXc.7.t % $ - D / y.q.R f d i d p p p a d a i , * & % y a E f.|.g.P i $ X . X j OXMXFXNXjXI       . ",
"dXVXdXeX8.y . . $ = j c.rXrXE.v.z.g r & - k U E U P f d d m M f n f n f f p , , y y i S E r.P a < , $ X $ d i.OX@XOXn.k       . ",
"VXVXVXeX7.y X $ $ d 7.rXrXrXv.d.5.g y - < i S F F n d f N B R T M n f n M m d d d i p z U M a i = $ $ $ * f e.d.f.s.j &   . . a ",
"VXVXfXwX5.% X $ * d c.hXtXE.s.5.h i & , 2 f S f f f a h B 9.R B M M b M 9.R m n d d f V 9.R b i , & $ $ $ i 9.i.s.9.i X   . X P ",
"sXfXeXj.h $ $ X = M v.hXtXE.7.f i % % , a n M n f a f f T T R N M f n n R R M b p d R e.g.e.9.d i = $ $ $ , f T T c z &   X X < "
};
