/* XPM */
static char *out[] = {
/* columns rows colors chars-per-pixel */
"64 64 256 2 ",
"   c #090B06",
".  c #180C05",
"X  c #0B1507",
"o  c #171607",
"O  c #080917",
"+  c #150C18",
"@  c #0A1517",
"#  c #141413",
"$  c #14141C",
"%  c #1B141C",
"&  c #191818",
"*  c #260D04",
"=  c #390D02",
"-  c #261607",
";  c #371809",
":  c #241717",
">  c #2C1419",
",  c #0C2306",
"<  c #182504",
"1  c #1B2418",
"2  c #252606",
"3  c #37240A",
"4  c #2C350F",
"5  c #262619",
"6  c #382517",
"7  c #373915",
"8  c #150C24",
"9  c #0E102F",
"0  c #0A1828",
"q  c #181925",
"w  c #191A35",
"e  c #271A26",
"r  c #241C24",
"t  c #2D1429",
"y  c #261A35",
"u  c #1D2224",
"i  c #1C242D",
"p  c #1B2737",
"a  c #112931",
"s  c #24242B",
"d  c #282728",
"f  c #352627",
"g  c #2D3627",
"h  c #37382B",
"j  c #232433",
"k  c #242A33",
"l  c #292939",
"z  c #352A37",
"x  c #28343A",
"c  c #2C323C",
"v  c #363636",
"b  c #34343C",
"n  c #451706",
"m  c #471915",
"M  c #551817",
"N  c #462718",
"B  c #562719",
"V  c #4E3214",
"C  c #6D2D18",
"Z  c #4C1D26",
"A  c #621927",
"S  c #452827",
"D  c #50322E",
"F  c #413B3A",
"G  c #72382C",
"H  c #374815",
"J  c #3B492E",
"K  c #514F15",
"L  c #6C551C",
"P  c #536517",
"I  c #6B6F16",
"U  c #574727",
"Y  c #4F522F",
"T  c #474837",
"R  c #694A29",
"E  c #754B36",
"W  c #695336",
"Q  c #725030",
"!  c #556B2F",
"~  c #6F762B",
"^  c #766338",
"/  c #667638",
"(  c #141548",
")  c #25184B",
"_  c #172F4D",
"`  c #282B45",
"'  c #2D2B4C",
"]  c #2A3647",
"[  c #343A43",
"{  c #363848",
"}  c #2A3654",
"|  c #353956",
" . c #2F1768",
".. c #16386E",
"X. c #2C316B",
"o. c #353A69",
"O. c #353A77",
"+. c #453946",
"@. c #493350",
"#. c #4E356C",
"$. c #1E4142",
"%. c #38424A",
"&. c #2E4451",
"*. c #384556",
"=. c #364468",
"-. c #324C72",
";. c #3A4678",
":. c #454449",
">. c #484957",
",. c #544E50",
"<. c #4C555B",
"1. c #67524E",
"2. c #795847",
"3. c #56684D",
"4. c #6C6F50",
"5. c #4C4D6E",
"6. c #4A5767",
"7. c #565768",
"8. c #565A77",
"9. c #63586A",
"0. c #4C6669",
"q. c #5C6577",
"w. c #666878",
"e. c #706F74",
"r. c #8D301B",
"t. c #97481D",
"y. c #865A39",
"u. c #905035",
"i. c #AA5131",
"p. c #8C6B36",
"a. c #AC692F",
"s. c #C56338",
"d. c #855747",
"f. c #99564B",
"g. c #A65B4D",
"h. c #886648",
"j. c #966A48",
"k. c #93754C",
"l. c #896A56",
"z. c #976757",
"x. c #997757",
"c. c #AC694F",
"v. c #A77649",
"b. c #AC7C53",
"n. c #A67958",
"m. c #B57957",
"M. c #8D746B",
"N. c #987A69",
"B. c #A87966",
"V. c #B67964",
"C. c #B57570",
"Z. c #D4584D",
"A. c #CB6E58",
"S. c #EA7352",
"D. c #D07469",
"F. c #F27866",
"G. c #71851C",
"H. c #758933",
"J. c #748D50",
"K. c #5F8273",
"L. c #748D6D",
"P. c #879135",
"I. c #88A53A",
"U. c #92AE3A",
"Y. c #879845",
"T. c #928E55",
"R. c #A9865C",
"E. c #B58E52",
"W. c #B6895B",
"Q. c #90AD49",
"!. c #A8AF5D",
"~. c #938C6C",
"^. c #A88466",
"/. c #B68966",
"(. c #B99768",
"). c #A98976",
"_. c #B08E73",
"`. c #BA9578",
"'. c #93AB72",
"]. c #CD9359",
"[. c #C69868",
"{. c #CE9074",
"}. c #C99979",
"|. c #F08864",
" X c #CEA270",
".X c #A5C050",
"XX c #363C86",
"oX c #493892",
"OX c #5239A8",
"+X c #3A4586",
"@X c #354D93",
"#X c #2C599D",
"$X c #3A66AD",
"%X c #4E5089",
"&X c #444B96",
"*X c #48549A",
"=X c #695691",
"-X c #566789",
";X c #666887",
":X c #716E8E",
">X c #697689",
",X c #6B7797",
"<X c #747A98",
"1X c #4856A6",
"2X c #4D53B0",
"3X c #4C72B3",
"4X c #7577A7",
"5X c #595CC5",
"6X c #497AC1",
"7X c #8C7794",
"8X c #8675A7",
"9X c #798792",
"0X c #7689A7",
"qX c #6982C4",
"wX c #928C91",
"eX c #A8918B",
"rX c #B59987",
"tX c #8FAC8C",
"yX c #B6AC90",
"uX c #868AA7",
"iX c #8C94AC",
"pX c #9497B6",
"aX c #A797AC",
"sX c #98A2B8",
"dX c #B1AAB4",
"fX c #C69686",
"gX c #C79987",
"hX c #C7A388",
"jX c #D1AB8E",
"kX c #C7A695",
"lX c #CEB9A9",
"zX c #E6BCA6",
"xX c #B8C79E",
"cX c #D7CBB8",
"vX c #CFD0B5",
"bX c #EACDB7",
"nX c #E7CABA",
"mX c #D3E2BF",
"MX c #97A6CA",
"NX c #9CA4D3",
"BX c #ACAECB",
"VX c #D2B8CC",
"CX c #B5C7E5",
"ZX c #D9D6C7",
"AX c #CECFD0",
"SX c #D6D9D7",
"DX c #E5D6C6",
"FX c #ECD0CB",
"GX c #F6D5CA",
"HX c #D9E3C9",
"JX c #D8E1D8",
"KX c #CFD5EB",
"LX c #D4D8E4",
"PX c #D8E4E4",
"IX c #DAECF5",
"UX c #E9E1E2",
/* pixels */
"s b >.7.5.>.z d 1 K J.~.4.J 4 1 { 5.8.7.@.z e f S f S f 6 : : # b &.%.a @ O @ #   r e % q q q y ) ) 8 > ; ; f Z @.z : o 2 7 ^ 4.",
"u { 7.9.8.@.z 1 < g 3.T.4.J 4 g | >.5.@.@.y e e f f f f : : # : i p p 0 @ # % q y F z q + + q y ) ) t + * * t t y t 5 - - 4 Y 4.",
"$ b 7.7.>.{ k & 5 H ! 4.4.Y 1 a l @.@.{ z y : > e f f > : : : : k p k 0 8 $ % : @.1.,.y + + 8 ` ) ) q + . . e y ` l 5 X o 2 T 4.",
"$ j +.| { l i & g T 3.4.3.J 4 1 y ' ` ` z t q e f f f f e : : % ] &.] x q % 8 e @.9.,.S % + + y ` ) e % . # e ) #.| ] 1 X 2 T 9.",
"q c { :.| l s u v J T T J g 5 1 k { { { { d r r > f z f t : % % p ] | l q O e t f @.+.t > + > y ) ) k & # # 0 _ -.8.-.J 1 , g T ",
"d %.7.7.>.] s q d h h h g 2 5 d [ >.>.>.@.l e r r d z f : % % 8 p } *.] q 8 q y t F S t + + t z ' ] b k q @ 0 _ +X-.-.] @ X 5 h ",
"q :.w.e.>.[ e $ & v T T F 5 d d b <.<.<.+.l e e f b +.F f e % q p } =.*.w 8 + e S @.@.f > > t z { +.:.v u @ 0 _ -.-.-._ 0 X 5 h ",
"% :.e.>X>.` j j q %.e.e.,.v d 1 z >.<.>.{ d e d +.@.>.:.` e r q a } *.} j q 8 % +.1.9.F t + % d l b %.v & @ 0 ( ..-.-.} a @ . - ",
"d ,.e.:X9.:.c i { ,.w.9.,.z d : i *.<.%.c u q j [ @.,.,.v q q @ a _ -.&.] 0 $ $ z ,.9.:.r & & : f F F d u @ 0 0 $.-.-.-.p $ o - ",
": F ,.<.,.%.l i ] >.8.7.>.z d d x *.<.%.b k i r y z { b l q q q 0 _ &.&.` u $ # % g h e # + & # s F T v u @ @ 0 _ -.+X=.p $ 2 6 ",
": e g f h x s q l { @.>.{ z d e i J ] J %.[ j w s l z l s q q 0 a a ] $.p u + # s f z 5 # X #   # f v v v q @ a a =.-.=.` q & 2 ",
"z S S f d 5 q q p ' } | ' l d d @ k &.%.>.{ j i l l ` b d s 1 u p p x x k q # # d F ,.F d @ X #   u b :.>.v u @ _ &.-.o.} p # . ",
"D ,.1.T f 5 1 i ` ' } ' l l d d a *.0.0.0.[ w w y l { [ v k d k k k k s s s : % * f F z r # # $ 1 [ <.8.7.[ & @ a _ -.@Xo._ $ # ",
"D 1.1.U g 5 s s ` ' } ' ` y s d a 0.9X9Xq.[ w p j ] { b k i u u u u : e e 5 6 t * : * . & & # # 0 &.;X>X8.b & & 0 } %X-X;._ 0 1 ",
"S D D D 6 : 1 u p ' | } ` p s d ] 6.w.w.7.] p l l ` b k u $ # @ & % % : > > 6 6 f > - > - : . # 0 &.-X;X8.{ q u u } +X*X;...0 @ ",
"v S z f 5 5 d w ` X.o.| ` i d s J 0.0.0.6.{ p c j i e q $ 1 @ # & % * % : > > f t S S S > > % % a $.&.0.0.%.& X @ 0 _ +X#X.._ a ",
"{ { | ` f f s j ) O.+Xo.` i k d k 4.L.J.*.a p a 1 d l y @ # @ @ + + + + & % & & t m A A A m > # % & ! K.3.J 1 # o # _ -.3X#X..( ",
"6.8.8.>.b d s `  .XX+X;.} l k d J 4.J.J.0.J k d 5 5 e + + # # X : : : : # X 1 : > > M A M m * . & 1 ! H.J.J.H X . o a -.$X$XXX( ",
">X9X4X8.{ d k ` X.XX&X+X} x k k x 3.'.J.<.J u u : - > . . # . . . o - o . . . 5 * ; M M M = * * X , H J.J.J.T . . o p -.$X$X#X..",
",X0X0X;X:.f l ` O.XX&X5.| c l s J 3.L./ J d O 1 5 ; ; N S N 3 ; ; 3 6 3 ; * * * ; = m A Z m ; - . , 4 H.L.J.Y 5 o o a ..#X$X#XXX",
"<X0X4X8.+.b c ` O.XX&X+X| ] l g J 3.L.Y u 1 @ d Y R E E d.2.^ L ^ ^ ^ ^ W V n = n = n m B N m ; o & H ! J.J.3.4 X X a ..#X6X$X#X",
"9XuX<X8.| v b ` O.+X&XXX} c c v :.4.4.J , 1 y ,.l.l.k.n.B.B.E.].(.R.R.^.R.j.Q C n n * = ; N m m - 2 4 Y ! ! Y 4 o , a ..#X6X$X#X",
"9XiXuX8.| b [ } XXoX@XO.] c b v Y K.3.a X 1 7.7XeXB.W./.D.`.]. X X[.(.!.(.W.g.f.r.M * * ; N B m > o 2 ! J.! ! H X , 0 _ #X6X$X#X",
"pXMXpXw.%.c [ } XX@X+XX.} c b v 3.L.3.a @ x 8XBXeX^.E.].fXfX]. X X X(.[.[.].m.s.f.C = * ; N A A - & 4 / J.! ! H < X @ _ -.$X$X#X",
"sXsXpX;X>.[ [ =.&X1X@XX.` x [ v 3.L.*.a a &.CXBXwX).E.[.gX{.].].]. X(. X(.[.A.c.Z.g.m m > m Z m - o 5 ! J.H.! H < X @ 0 ..#XqX6X",
"sXsXuXq.>.[ &.5.*X1X@XO.} x c x J K.0.a _ -XCXNXwX).R.(.gXgX{. X X X(.(._.R.D.D.F.7XG Z = = m N : . . 7 ! J.G.G.H , @ 0 ( -.6X6X",
"iXiX4X8.>.[ *.-.1X2X2X+X} x z x ! 9XK.$.$.MXCXNXwX~.T.(.rXfX}.[. X XjX X}./.V.D.D.D.g.A = = n S : o   2 J J.H.H.H , X O 0 ..#X#X",
"iX0X>X5.*.&.{ =.*X1X1X+X| x b J 3.L.L.K.#XCXNX,Xb U U Q z.`. X X X}.^.h.W R u.f.F.D.D.r.M = n ; 1 o X 1 P Q.Q.H.H , X @ 0 a ....",
"iXiX,X5.*.| } =.*X2X1X+X} x b v J L.tXtX0XCX0X&.v 7 N U ^ ^.hXjXjX_.h.V 3 n V C i.D.D.i.C n W 4 o & # - K P.Q.J.! 4 . o & 9 ....",
"sXiX<X8.>.*.| =.1X3X1X+X} x b h ! J.'.tXqXCXqXq.e.4.W ^ z.^.`.rXgX).l.4.W Y U G C Z.F.Z.r.B H.Y X & . o K H.U.Q.J.H . . X q =.$X",
"sXsX0X7.>.*.&.-.1X2X$X+X} x b T ! J.'.tX0XCXqX9X4.Y U E k.^.`.gXkXeXl.W Y W ^ j.u.F.F.S.r.t.H.! < & + . H G.U.H.J.H o . . 0 =.3X",
"BXsX<X5.*.] *.;.@X1X1X+X} ] :.T J.J.J.tXMXCX0X0.4.D D E j.B._.}.}._.l.W U V K R Z.S.S.S.t.].T.H.1 1 # - K G.H.G.H.H - - . @ } 3X",
"BXpX:X6.*.*.o.;.&X&X&X%X| v T 3.L.tXtX9XsXBXwX).^.j.g.c.B.B./.[./.W.v.j.y.y.h.k.m.Z.|.S.i.].Q.Y.Y X X g L Q.!.P.P.K - o X @ ..3X",
"BXpX>X>.*.| -.&X&X&X+XO.| x h Y 4.4.wX:XdXdX~._.(.V.C.7X{.{.{.[.[.W.W.W.R.^.R.(.].].S.|.a.a.Y.Y.! X X < 7 ^ p.p.~ V - . X 0 -.qX",
"BXaXw.>.*.=.;.1X2XOXXXO.} l h h Y <.w.;XMXdXaXrX`.}.fXfXfXfX`.(.E.W.[.{.}.}.}. X{.|.S.|.a.t.U.P.! < # # > S D @.@.Z t 8 $ 0 =.4X",
"NX8Xw.%.&.o.XX2X2X1X+XO.] b v v +.<.7.=XpXAXkXrXrXhXfXrXfXkXgX`.W.(.[.{.jX}.jX}.{.|.S.S.s.a.P.p.P 2 # q 8 t ) #.#. .) 9 8 0 _ 8.",
"pX8X7.%.%.=.XX1X2X2X@XXX] l x { >.=X#.8X8XVXlXaXhXhXkXfXfXkXkXgX[.{.[.{. XjX X{.{.F.F.s.t.a.t.I P 2 o 8 8 )  .oXOXOX .( 8 O q l ",
"pX<X<.%.&.} O.1X5X5X&XX.` x ] | 5.8X=X4X=XBXaXeXyXkXkXrXrXeXrXrX`.`./.{.}.gX{.jX|.D.|.t.a.E.P.G.P 3 . + ( )  .OXOXOX .) 8 # + q ",
"pX<X>.b ] o.oX2X5X5X1XO.] ` ' | #.%XoX=X<X7XaXeXrXrXfX).M.M.M.M.z.j.n.^.}.}.jX|.{.A.s.a.s.E.P.p.I 4 2 + 8 9 ) XXoXoXX.( $ # + e ",
"pX,X*.J [ | &X3X5X2X%XX.` ` ' ' #. .oX=X4Xq.aXaXrX`.`.C.z.E E 2.E E h.n.`.gX}.gX].m.i.t.E.p.p.K K V 4 # 8 9 9 _ X.O.} 9 # # : z ",
"uX>X{ [ %.` ;.1X2X1X5.o.] ` ` } O. .X.%X>Xq.w.wXrX^.l.u.C Q d.E d.E U R Q T. XV.V.g.E c.p.L P.~ ~ ! H X X 0 0 0 ( ( _ p #   e ` ",
"uXw.[ c [ ` X.5.5.%Xo.' l l | 5.-X%X5.-.=.[ >.~.eXl.R Q y.z.C.z.z.l.l.^ V R /.{.d.G B V K L P.P.Y./ g @ @ a x -.-.-.} a @ X $ y ",
"wXe.%.[ ] k l l ] | | l p j | 7.4X0X0X>X=.] >.e.~.l.L G u.u.G d.d.W W W U R n.n.G B n . o P P.Y.Y.! H @ @ a -.0X3X3X%X| u $ + 8 ",
"wX<.[ c c p v d f J %.c j j l *.-X4X,X>X0.[ { >.7XC.k.j.j.j.z.C.C.B.4.k.T.^.^.u.C B 3 . X Y Y.Q.Y.H.J @ @ a -.,XqXuX4X8.x $ + 9 ",
"T v e ` j v Y Y Y Y :.b l i u d | *.%.%.%.x c +.M.7XB.n.^.V.z.z.z.N.^.T.x.T.b.u.A D * o < 4 Y.Y.H.Y.3.5   @ ( _ &X&X%X@.j # O 8 ",
"5 1 y y l F 4.H.I H.! b j r & 5 j p u u x a ` | 5.M.N.z.j.d.D m Z d.l.x.x.p.u.C G G . o X , ! ~ G.P./ 4 X   @ 9 ( ( 9 9 & # + + ",
"4 5 y l y F T.G.I I Y d q q 1 d q y d k i 8 ( 5.;XM.M.^.x.k.2.1.z.V.V.(.W.p.u.G C.@.* . , < P I I G.P 2 o X X + 8 8 8 + : : + 8 ",
"< # 8 w + h P.I P I U 5 % % : g @.,.7.<.[ a #.uXuX1.,.l.~._.).M.7X{.x.x.y.C C g.C.A * . < H ! P.I I K 2 o     o e l b z e > + 8 ",
"5 & $ 8 $ J ~ I.G.G./ H X 0 c w.,XuX0X0X>X*.9Xw.aX7XU S U l.N.M.M.h.W V n C f.D.V.G * * 7 / Y.T.H.~ K 3 o X o J 6.q.w.w.7.@.' 8 ",
"f % q $ # H / I.U.Q.! < X u [ q.,X-X8.,X>XpXiX7.wXwXM.2.D 6 f U Y 6 * n R g.m.V.{.z.Q   . U T.Y.^ ^ L N o   1 :.e.9X9X<X:X:X#.y ",
"# . +   X 7 H.U.I.I.~ < X q i >.-X0.0.0.>XCXwX] wXeX7XB.2.D 6 V 3 6 R h.m.[.V.c.f.h.gXV . 2 U U D U N - . # u ] 6.;Xq.5.>.5.@.8 ",
"& # $ # < Y Y..XU.U.P < X q l ;X0X0X0X9XCXPXdXJ wXwXN.).).x.h.2.2.l.x.B.m.c.m.V.d.d.bXM.=   o 3 S S > + + + @ 9 x 6.9Xw.5.@.z + ",
"o . . X < P I.Q..XH.P < X @ p ;X9X0XCXCXKXAXdX,.2.N.).^.N.B.^.x.T.R.n.n.b.m.c.z.E E GXcXf.Z + = f @.@.t 8 8 O 9 0 7.wXiX7Xw.F % ",
"#       < P P.I.U.H.G.4     [ uXBXKXCXIXIXPXZXe.U M.).B.x.n.n.v.k.k.n.b.W.m.k.y.B 1.bXGXzXkXd.@.A #.#.) y 8 9 9 O ` 7.q.9.<.z + ",
"5 & o 2 H / Q.U..XI.J.Y - >.aXIXCXAXCXIXCXmXvXwXD 2.n.B.W.W.v.p.v.E.b.v.v.v.v.j.V 2.lXFXVXFXzXkX7X8X#.A y w 8 O 9 q q w j k r $ ",
"& X X < K H.Q.I.U.H.Y.T.tXSXIXKXAXCXIXKXPXAXSXvXD 2.x.m.b.v.v.R.v.b.b.b.E.b.y.Q 3 2.FXFXFXzXFXFXUXKX8X9.y 8 8 8 O O @ 8 $ 8 q q ",
"O X     4 H.Q.Q.H.J..XxXHXSXSXKXCXJXPXPXJXAXZXcXW V j.m.b.v.R.v.v.c.v.v.v.a.p.R 6 4.nXGXFXGXFXnXFXLXVXdX9.+   # O $ # O j s 8 w ",
"$ X   < P J.Q.Q..XxXxXmXHXJXLXLXAXLXPXPXJXJXZXZX~.C y.j.b.E.v.a.j.v.v.v.v.v.p.Q 6 ~.FXGXFXGXzXFXVXUXFXAXdXe.g     s +.>.5.8.5.| ",
"q @   H J.'.'.xXmXmXmXmXSXSXLXLXLXLXPXJXAXJXHXZXrXR R u.v.b.v.p.v.v.c.v.v.p.y.R V ).GXFXFXGXnXGXFXFXcXDXFXcXwX1.: v e.iX7XuXpX<X",
"O @ , Y '.'.xXmXmXmXmXmXDXFXAXAXAXPXPXPXJXJXHXHXyXd.Q h.n.b.R.R.k.b.b.b.b.k.y.Q V rXDXDXGXGXnXbXFXDXvXvXcXGXDXvXe.1.w.wXuX4X4X4X",
"9 O 1 3.yXxXmXJXSXSXSXHXSXSXSXSXAXPXPXPXHXAXvXcXlXB.E j.R.^././.n./././.W.v.h.E W yXcXcXDXbXbXbXcXZXcXcXcXmXbXDXAXwX,.9.<X;X=.X.",
"w O 5 4.xXHXHXLXLXLXJXJXHXZXAXSXSXJXUXJXAXvXdXyXDXrXE h.n.`.`.^._.`.[./.b.v.h.y.^.jXkXkXlXbXbXbXcXcXcXZXDXvXcXcXFXFXwXe.uX4X;X%X",
"( O J yXHXHXLXKXKXKXLXJXDXAXZXAXSXPXSXmXvXdXlXdXcXzXN.B.^.`._.^._.`.`././.W.^.R.jXcXkXkXjXxXbXbXZXZXcXZXDXDXcXnXAXUXLXBXpXpXpXMX",
"w O 0.JXJXvXKXIXKXIXLXSXSXZXAXFXPXJXAXCXvXvXZXcXcXGXkXkX`.`.`.).).).`.}.{. XzXbXbXbXvXvXyX XcXzXZXZXZXcXcXDXDXDXDXVXLXAXNXuXqX4X"
};
