/* XPM */
static char *out[] = {
/* columns rows colors chars-per-pixel */
"64 64 256 2 ",
"   c #040401",
".  c #0C0606",
"X  c #040A03",
"o  c #0C0B03",
"O  c #03040B",
"+  c #030A0C",
"@  c #0C0B0C",
"#  c #130B03",
"$  c #1B0C02",
"%  c #130D0C",
"&  c #190B09",
"*  c #051707",
"=  c #0C1304",
"-  c #0D130C",
";  c #131304",
":  c #13130C",
">  c #1A140B",
",  c #141A0C",
"<  c #1A1808",
"1  c #010513",
"2  c #030B14",
"3  c #0C0D13",
"4  c #060519",
"5  c #020C1C",
"6  c #0B0D1A",
"7  c #130D13",
"8  c #140C18",
"9  c #0C1314",
"0  c #081715",
"q  c #04121C",
"w  c #0C141C",
"e  c #0D1A1C",
"r  c #131314",
"t  c #1A1514",
"y  c #141A14",
"u  c #1B1A14",
"i  c #13141B",
"p  c #1A131B",
"a  c #141A1B",
"s  c #1B1A1C",
"d  c #25190B",
"f  c #32140E",
"g  c #251B17",
"h  c #182606",
"j  c #1A2F0E",
"k  c #1A2416",
"l  c #272518",
"z  c #312F11",
"x  c #342718",
"c  c #060B25",
"v  c #0F0C2D",
"b  c #031323",
"n  c #0C1523",
"m  c #0A1928",
"M  c #131422",
"N  c #141A23",
"B  c #1B1B23",
"V  c #161528",
"C  c #141B2B",
"Z  c #1B1C2B",
"A  c #081836",
"S  c #181A35",
"D  c #2C0D2D",
"F  c #241C27",
"G  c #221C36",
"H  c #0A2428",
"J  c #1D2324",
"K  c #182628",
"L  c #1C232C",
"P  c #0C2934",
"I  c #1B2333",
"U  c #182837",
"Y  c #1D233C",
"T  c #163437",
"R  c #232324",
"E  c #292824",
"W  c #23242B",
"Q  c #242A2C",
"!  c #2B2B2C",
"~  c #342B27",
"^  c #293429",
"/  c #383626",
"(  c #32332D",
")  c #222433",
"_  c #242B33",
"`  c #2B2B33",
"'  c #25283A",
"]  c #2B2D3B",
"[  c #352D38",
"{  c #2A3538",
"}  c #333333",
"|  c #37383A",
" . c #4D3117",
".. c #532E2E",
"X. c #58292E",
"o. c #473827",
"O. c #443A3A",
"+. c #553434",
"@. c #64352D",
"#. c #733438",
"$. c #364B10",
"%. c #394638",
"&. c #4F5419",
"*. c #596B14",
"=. c #677719",
"-. c #56482A",
";. c #4D512D",
":. c #464438",
">. c #574737",
",. c #654B37",
"<. c #6B5132",
"1. c #54682B",
"2. c #727037",
"3. c #0C184E",
"4. c #171A44",
"5. c #2A1452",
"6. c #172747",
"7. c #18344B",
"8. c #102950",
"9. c #193657",
"0. c #242B43",
"q. c #272A48",
"w. c #2B3243",
"e. c #283747",
"r. c #2C344B",
"t. c #363A46",
"y. c #312753",
"u. c #293855",
"i. c #373B56",
"p. c #1B1D69",
"a. c #38116F",
"s. c #1B3465",
"d. c #13326F",
"f. c #263869",
"g. c #343B64",
"h. c #2F3070",
"j. c #4C1A44",
"k. c #473B4B",
"l. c #703549",
"z. c #482B75",
"x. c #703D6D",
"c. c #1B4656",
"v. c #244249",
"b. c #394447",
"n. c #274757",
"m. c #3B4756",
"M. c #365357",
"N. c #3B4765",
"B. c #365668",
"V. c #32596E",
"C. c #2B4E72",
"Z. c #474748",
"A. c #51514C",
"S. c #454A56",
"D. c #4A565A",
"F. c #555558",
"G. c #704E4D",
"H. c #685A47",
"J. c #755B45",
"K. c #546955",
"L. c #7A6749",
"P. c #796958",
"I. c #727151",
"U. c #484C66",
"Y. c #504E6C",
"T. c #4C5865",
"R. c #565967",
"E. c #485676",
"W. c #575977",
"Q. c #665C6B",
"!. c #45636F",
"~. c #566467",
"^. c #596575",
"/. c #686969",
"(. c #71706E",
"). c #666A7B",
"_. c #777B77",
"`. c #86613C",
"'. c #823F53",
"]. c #846A48",
"[. c #8B754B",
"{. c #866C55",
"}. c #8C7856",
"|. c #957958",
" X c #927C5C",
".X c #A37E5C",
"XX c #887A66",
"oX c #967A67",
"OX c #897971",
"+X c #728B1C",
"@X c #6D8931",
"#X c #71894D",
"$X c #778478",
"%X c #98865D",
"&X c #928C59",
"*X c #AE945C",
"=X c #8A8264",
"-X c #9A8866",
";X c #9C9269",
":X c #8A8575",
">X c #958A76",
",X c #9C9276",
"<X c #A48869",
"1X c #A79669",
"2X c #B69A68",
"3X c #AC8B76",
"4X c #A89676",
"5X c #B89978",
"6X c #96A071",
"7X c #B6A66C",
"8X c #ABA874",
"9X c #BAA677",
"0X c #C39A7F",
"qX c #C4AF77",
"wX c #30278B",
"eX c #2A3089",
"rX c #4C1D93",
"tX c #5724B0",
"yX c #2E4F8A",
"uX c #2A4C92",
"iX c #535C91",
"pX c #586786",
"aX c #506C8F",
"sX c #656987",
"dX c #687789",
"fX c #6E7590",
"gX c #4553AC",
"hX c #6C74AB",
"jX c #757AA4",
"kX c #777BC5",
"lX c #966A8F",
"zX c #75858C",
"xX c #77859A",
"cX c #778CA9",
"vX c #798ED3",
"bX c #8C918B",
"nX c #959995",
"mX c #A89486",
"MX c #B69A89",
"NX c #AC9990",
"BX c #96A49A",
"VX c #B8A88A",
"CX c #8796A8",
"ZX c #8D97AD",
"AX c #8CA2BC",
"SX c #96A6B8",
"DX c #A7A8AF",
"FX c #C19C8A",
"GX c #C4AC88",
"HX c #BEC58E",
"JX c #C8C78B",
"KX c #8994CA",
"LX c #91B0CF",
"PX c #9DB9D7",
"IX c #9DC6ED",
"UX c #A5C4E6",
/* pixels */
"m.S.r.I 5 5 m U U A b 5 n ) ] ] Z M w w L ` _ W s B ! :.Z.:.( ^ s W W ! ( ! F r V F ) W s r : y L 0.Y n 3 r > l x d # # % t B i ",
"t.t.w.C 5 5 m U U P m 6 C ] t.t.) M 6 V ] S.b.` R s s E ( ! l a W ` | | | ! s i 8 B F W s @ = y I 0.Y n 2 @ r l ~ g & . r s G W ",
"t.t.' m 5 5 S T w.U m b I e.S.S.` Z 3 i | R.F.} R s y Q | %.! J B ` t.Z.| ! J B F ' [ ` B - : 9 6.u.0.m 6 3 t ~ ( E > @ i L ` { ",
"w.{ ) w 2 q U e.e.T n b C 0.m.i._ F 3 i t././.Z.J s R t.F.F.b.Q M _ t.Z.| W B N ' w.r.w.L i - 9 6.u.u.Y M 6 B } F.O.R i 9 w C ' ",
"` W B 6 2 M T t.t.U b c m 6.e.w.F s r t O././.F.Q W _ b.R.F.w.L L ' t.Z.| J i m S 0.w.] C w @ w Y u.u.S v 6 8 _ t.! i 3 2 m U t.",
"g p 7 O 3 N 0.b.e.P b b P r.u.U a > : : ! Z.S.| Q Z L t.S.m.] Z C L ] b.b.K N M C S q.0.C 6 9 e 4.q.r.6.S 5 8 W ! s 3 + 2 q U r.",
"p 7 @ O 9 J { b.U H b b U u.u.U r > ; t E ( W s B N C ' r.t.' U n n Q t.b.{ L M V Y r.0.S n w V 6.q.0.S Z 6 8 F Z.} J i + O 2 n ",
"s p 7 @ 9 B _ t.L m b b 7.u.9.P r < u ~ O.:.} W B M Z ' w.6.S A L C { S.D.b.I n v 0.r.q.S 5 5 n Y 0.S V M O @ F ~ F u s 9 2 N Q ",
"} t % r 3 r Q { N n b b 7.N.u.P u ; u / A.Z.} B i V ) 0.0.6.S c m L S./.~.t.N n m 6.r.y.Y n 5 6 C S V M 8 8 & & d & & & % @ y | ",
"[ 8 @ t u i a k e q b m 9.B.C.7.r ; < E ( ~ R p i M Z ' w.Y S A V Q Z.~.K.{ N N C G r.r.' v w m Z F V B 8 8 & & f g & & & # u } ",
"! 7 r W ! ! Q K e q b P u.B.N.7.i : t s g t p B V M S w.r.Y S C J Q %.K.A.^ a N C ) r.y.' m n N ) Z i 8 & 8 & & t f g $ # & u ~ ",
"s % i ! } } } ! e 0 q m 7.B.9.U 9 : r g W R B i B M Z w.w.I C Z k ^ %.A.:.^ a N V S 0.' S M i V ' L M 4 @ & & & f F g & & # ; g ",
"i 3 i R R s k s 9 9 q H 7.u.7.A w : i ` Z.t.` i V M Z w.t.) S Z J ^ :.K.;.^ k i Z Z Z ) S M w a T T _ _ N i @ . & g g & # # % t ",
"i 6 J ! W k R a 9 q w U e.n.7.P n i J Z.R.F.[ M i M Z [ t.] ` W E / :.;.;./ k a B C Z Z V 6 w w U v.M.M.e.J 9 @ 7 p g t : . o t ",
"n a _ b.b.| } Q 9 9 n T m.n.6.A m B [ S.R.A.` M M F ` ` { [ _ R k l z %.%./ ^ l F B G G Z p i e H n.!.!.v.I e i F W W R s @ + s ",
"9 i ] S.S.b.^ y , 9 N e.m.u.T m V ) t.D.R.i._ M B ! [ ` ` | ` a , ; ; h z ( / l R R R W F B p i H v.B.B.T b e L | | { { _ 9 X u ",
"= 9 q.Y.^.m.J = = , M G q.' I b V G k.W.sXU.F F E g ~ l l y - - . & > u x x z l l o.| ( [ F t r H v.M.V.v.0 * k ( { v.T H q - # ",
"< t G i.U.r.k , < l ! q.q.0.I K G q.Q.fXfXY.` F ! l g d , r 0 0 t g t d l l l d x x / ~ ~ E g s K %.c.c.c.q * k E %.n.7.H q # $ ",
"u 8 S q.q.I a u < E k.Y.U.i._ N F G R.dXY.0.M i g s t : - 3 q e 3 7 % @ % u t < u x l l ~ x s s K c.c.c.7.H 0 k k %.B.n.P q o $ ",
"p V G y.q.S i , < ~ l.Y.Y.k.Q J Q L R.^.w.m n M i r % @ @ 3 q n 6 3 3 O O r r : - u , y l l k k H c.c.c.7.P 2 - a v.!.!.v.N o $ ",
"D G y.z.y.4.B u g F [ w.[ ] Q E ( K S.m.m q n q w r 7 3 9 w n w B B 8 3 3 3 7 @ @ : - = k l j j H c.V.V.c.P q 0 H %.M.!.v.K o $ ",
"D 5.z.k.y.S Z g x ~ ..k.k.} ( ^ Q ^ b.{ q b q q 9 7 r 7 7 3 5 3 3 7 7 @ @ 7 3 O + y - = h l k ^ T M.V.V.c.P q e e %.M.M.{ e o $ ",
"5.5.z.z.5.G F F [ k.Q.P.F.Z.| ( ^ Z.D.L b H n q 9 r > > > t d $ , d g u > u 7 @ @ y - = , j j ^ T c.!.V.V.T q e 0 ^ M.K.%.k o $ ",
"5.a.z.z.y.G G ) k.G.Q.Q.F.O./ ( ( Z.S.m 1 m b 0 r t < d d d z f -.-.-.o./ x g > o : : o , < j ^ T c.M.$X!.7.q * * ^ K./.1.l ; # ",
"a.a.a.z.y.D G ` [ k.G.Y.Z.O./ } t.Q.t.C 1 m m w y E x  .<.-.<.2.2.[.[.&X[.<.-.x d # # $ u u l l K M.D.m.t._ w * h j K.#XI./ X < ",
"rXrXz.z.y.G G ' t.k.k.k.:.| :.| k./.U.r.A b b L A.H.H.2.[..X[.*X*X*X*X*X*X[.].J.x l # ; > x ~ | %.M.S.t.Q s i y h j 1.#X#X1.h ; ",
"tXrXrXk.q.G G 0.y.k.F.k.O.O.t.Z.k.sXW.i.7.A v.$X_.:X-X<X2X*X*X*X*X*X*X2X2X1X%X&X<.-.d d ; ~ E ( ^ Z.>.~ F g 8 r * j *.@X[.1.h X ",
"tXrXz.a.G Z Y r.y.k.Q.F.Z.Z.b.Z.k.sXW.A P 8.^.SXnXnX4X4XqX*X*X0XqXqX7X2X7X2X2X%X&XL.;.h u l E l ( :.k...X.~ p & h j 1.@X2.1.j * ",
"tXtXz.5.G Z 0.i.Y.iX).Q.A.Z.b.b.Q.lXsX8.8.C.cXPXSXnXbX3X3X2X2XqXGXqX5X2X*X2X1X*X1X&X&X^ l = ( ! ^ O.@.#.#.X.D & h h &.*.*.&.l * ",
"tXtXz.y.) I e.N.sXsXsXR.D.m.m.m.dXcXaX9.3.C.vXIXPXnXnXNXVXFXFX0X0XFXGXGX9X9X8X1X8XHXVX$.h X l ^ / +.X.#.'.j.D 8 = < &.*.&.$.j * ",
"tXrXa.y.) U e.N.E.iX^.U.Z.b.M.U.dXxXpXc.3.yXvXIXPXCXbXNXmXmXMXMXMXFXVXMX2X&X&X&X&XJXHXI.h = k E o.+.#.l.'.X.D p k h 1.2.&.;.%.H ",
"tXrXp.G L K { u.y.g.E.U.m.m.S.m.zXcXxXaXc.aXIXIXcXT.w.o...G.3XMXFXMXoX,. .z  .&.2.HXHX6Xz ^ l } [ l.l.'.'.j.D p - = &.2.*.;.j * ",
"wXy.4.S _ U U n.u.E.E.N.M.m.m.T.zXAXAXxXV.aXIXLXaXW.Q.{.`.<.{.<XMXoXJ.J.J.L.}.P.2.6XJX8X1.;.l { ^ ( Q.lXlXx.j.v O : j $.@X$.%.j ",
"fXW.y.Z I _ m.dXsXhXpXE.N.m.~._.zXCXxXzXV.aXIXvXaX).H.2.<.<.{.3XGX2X].G.G.G.L.L.=.*XJXHXI.I.( } ^ ^ k.OXlXx.j.D 7 , h 1.#X1.*.$.",
"sXY.r.U I U M.fXxXcXdXE.m.S.K.zXxXcXxXcXcXcXIXLXaX!.>. . . .G.oX5X*X].,.o. .-.>.@X&XJXqX,X;X:.( ( ! k.l.l.l.j.f & = * 1.#X@X*.j ",
"U.z.0.L L L t.T.E.pXE.N.m.m.M.~.pX!.!.xXcXLXIXLXcX).<.-.@.#.{.oX5X2X|.`.G.,.L.[.&X&XqXJX8XBX>.^ ~ ~ +.l.j.#.X.$ & X * &.@X@X+X$.",
").Y.] N N N K v.u.n.i.m.m.v.{ %.n.e.t.).ZXLXPXLXAXbXOXXX.XoXoXMXMX9X<X<XoXoX4X1X8X7XJXJX8X4X>.x x ..G.#.#.#.@.f < = * $.@X@X@X*.",
"R.S.Q w K K T t.m.b.r.r.b.%.} b.m.e.w.^.ZXSXPXUXAXBXmX3X.X.XFXMX9X9X3X4X3X,X5X1X7XqXqXqX1X4X>.x x ..l.,.#.#.@.f $ * * j 1.@X+X+X",
"] Q w i { b.M.D.^.T.m.v.e.{ b.~.W.S.t.A.fXZXLXPXLXDXNXFXFX0XMXMXFXqX1X5XVX5XGX9X9X7XGXqX1X,X-.x x ....X. . . .f $ o * $.1.*.+X*.",
"` R w i | D.(.zXzX).D.| ^ { Z._.CXsXS.D.fXZXAXPXSXDXFXFX0X3XNXNXMX5X<X3X4X9XGX9XqX7XqXqX1X;Xo.f D g d $ f f f f # ; j %.1.*.+X$.",
":.R 9 J b.R.T.D.~.D.b.{ Q Q b.D.^.W.D.k.DXZXCXSXSXDXGXFX0X.XoXG.-XJ.<.-X5X5X9XqX7X7X7XGX<XVXo.> R k y < o < d < ; o l 1.I.2.1.&.",
"Z.R - B b.R.^.~.D.b.T ^ Q K _ ] i.t.[ [ CXCXZXLXDXNXNX5X0XFXXXH.J.<.].<X1X<X1X9X9X7X9X8X X-X .l 9 q J { ( } E X - X : E %./ / &.",
"%.R r B t.R.).).T.b.Q K Q K I _ Y S G V F.U.dXCXZXnX3X5X0X<XJ.+.f x ,.oX7X9X9X1X1X;X8X XH.>.d u e T M.^.~.T.S.{ 9 +   o t g g l ",
": o . 6 I 0.t.v.{ K e 9 e K w.U.N.i.k.M M q D.CXbXbX3X.X`.#.+.o.L.<. .@.-.].*X*X1X,X8X,.o.x d : 0 H v.B.!.E.N.e.3 @ o . % i D G ",
"o   O 6 c 4 c v N 0 0 q 8 G W.ZXjXfXY.G 9 2 M.CXnXbX-X`.<. .>.H.,.,.J.<.<.`.%X1X1X4X4X/ g d F : * 0 T n.E.iXN.Y w @     3 v 5.5.",
": 7 7 6 c c v I C m w 0 w q.sXSXZXjXS.F V w e.zXbX>X-X[.`.<.J.P.oXoX{.J.<.].&X;X4X,XXXl & 8 F . * Q E.fXhXhXiXE.L -     6 S y.h.",
".   O c V 4.q.u.I w + 5 Z r.iXjXZXjXi.V i q U _.zX:X|.*X.X.X{.(.G.'.|.>X2X7X2X-X;X>XI.:.| %.] O   l R.jXhXhXhXsX{ :   . c 3.p.eX",
"% O 6 6.g.N.iXE.r.N @ k S.sXhXlXhXhXi.M i 0 T CXbX:X X.X<X<X>X:XOXOX3X3X;X%X-X&X,X>X(.$XlX).S.Q # # Z N.iXhXhXiX{ 9   . 6 v 3.p.",
"8 4 c 6.d.yXuXC.7.0 X < b.sXvXvXkXiXy.v w Q K.BX$X$X:X>XOX>X3XmX>XmXmX4X4X<X;X&X}.,XOXnXZXSXsX' + o n g.hXKXKXjXm.n   O 5 c A 3.",
"4 4 A 8.d.d.uXd.A 0 . . B g.gXgXgXiX4.c + ^ K.bXbX$X(.OXmXbXOXOXOXbX4X4X4X%X&X}.I.:XP.bXnXCXE.A +   1 0.hXKXKXjXu.c   q n m c A ",
"3 2 6.C.uXuXd.d.b w o   c 3.wXgXeXh.4.c q b.$XBXbX_./.(.(.H.A.>.H.H.L.L.L.].`.].=X;Xo.:.U.i.6.1 + + O A E.hXaXiX0.5 O w U u.f.9.",
"+ 2 7.aXaXuXd.c.b q @ 4 c eXwXwXeXh.8.A m b.$XBXbXbXdX/.A.~ d d x x f z &.-.2.].-X,Xl . g O c 1 X - 2 c 6.f.g.y.S 1 O 6 U m.pXpX",
"X + 7.V.uXd.3.A 5 2 O 4 3.p.wXeXh.p.6.A q K K.nXzXbXbX(.Z.l # < $ $ $ d  .&.`.[.%X,Xo.; E 3 n w   X O 5 6.g.g.u.Y 2 O O N e.E.^.",
"* 0 7.yXd.d.8.b 2 O O v 5.h.d.p.3.3.A A q K D.BXBXbXzX:X/.>.o.x x f f  .-.2.[.%X;X4XH.z E a a a @ @ O c N.fXpXY.t.V 1 + 2 b 6.7.",
"* b 9.yXuXuX7.H + + 6 S 5.h.p.p.4.A A n q K K.BXBXbX$X:XOXP.P.H.,.,.<.<.].&X%X;X4X4X=Xz > : 9 9 u s 6 L E.xXcXfX^.] 3 2 2 1 5 b ",
"2 b s.yXuXC.8.0 * 0 V G 4.4.A c c v c 1 + Q /.nX6X:X:X:X=XP.P.P.P.].L.2.[.%X%X%X;X;X,Xz < l r : @ k B _ E.xXCXZXdX[ O O 2 O 5 5 ",
"m A C.gXuXf.7.H 0 k N C v v n M 6 B 8 3 O s F.BXmX,X>X=XXX}.{.{.|.{.].{.}.%X-X;X-X8XI.l # = - u : p a i H ] R.dX).[ O O 6 O 1 n ",
"A 8.yXgXyXs.U H 0 e M M n 6 9 9 7 r 7 t 7 t :.mX:X,X4X<X|.|.|.|.].{.}.|.%X-X%X-X-X,XI.l ; ; - : t s s a w K L _ Z.` p @ 4 i { M.",
"3.d.yXh.f.4.m e y y e a 9 - = ; : ; t t t . ~ (.,X,X-X%X-X<X.X|.}.|.|.-X-X-X-X;X>XXX;.< # > - r s t r i w 0 9 3 B _ ` B N { T.).",
"3.s.f.8.A A q e e y a 9 9 - = ; > $ % t 7   & o.>X;X-X%X%X|. X|.oX%X X X-X-X>X4X,XP.l o o r r r s t : 9 y y a a r F ! F ! b.D.K.",
"3.f.9.A C M e B w N e y : - , , = u : @ 8 3 . : :.L.;X;X&X{.}.-X-X%X}. X-X,X,X,XP.:.u o : i i 7 p t 8 : - - k y t r p F W ` { %.",
"s.f.6.n , t i p M N a y y - : y * h y + n V i @ = :.I.;X;X-X-XoX|.|.=X-X4XmX;X(./ u o r i i i O 7 t u t , * - , t 7 8 F p i K b.",
"f.8.L , = ; t 8 M V e y - : i i = k y w m C n w o < $.,.[.>X-XXX X%X;X4X,XXXH.:.u o 9 s i M V 3 8 & r t , , , y s r p B i e k %.",
"s.4.k k ; < s p v n e y - - w i - 0 e m m c 5 N = o = h / H.XXOX-X-X;X-X{.-.l X > @ r B 3 6 V M p t : = = = = ; s p 8 p a k y e "
};
