/* XPM */
static char *out[] = {
/* columns rows colors chars-per-pixel */
"64 64 256 2 ",
"   c #0F0600",
".  c #190A04",
"X  c #1C1409",
"o  c #1C1816",
"O  c #26160A",
"+  c #2A120A",
"@  c #271B17",
"#  c #351B15",
"$  c #17241B",
"%  c #2D220F",
"&  c #28231B",
"*  c #382419",
"=  c #301D2B",
"-  c #3A1D28",
";  c #1B2627",
":  c #282725",
">  c #372728",
",  c #38342A",
"<  c #2E2E31",
"1  c #3A2636",
"2  c #3A3634",
"3  c #4A1719",
"4  c #46261A",
"5  c #4E2D1B",
"6  c #471D2A",
"7  c #571A2B",
"8  c #481D36",
"9  c #591932",
"0  c #70142A",
"q  c #691C36",
"w  c #771938",
"e  c #472629",
"r  c #57252A",
"t  c #473529",
"y  c #59372C",
"u  c #482937",
"i  c #582838",
"p  c #473737",
"a  c #573739",
"s  c #6C2A2D",
"d  c #63372C",
"f  c #652739",
"g  c #6B2C3D",
"h  c #73243A",
"j  c #772839",
"k  c #66363A",
"l  c #77363A",
"z  c #4F4534",
"x  c #594437",
"c  c #674537",
"v  c #74473D",
"b  c #785136",
"n  c #72613B",
"m  c #3B3343",
"M  c #4F2F4D",
"N  c #592A42",
"B  c #473944",
"V  c #5A3946",
"C  c #682A43",
"Z  c #742B44",
"A  c #792945",
"S  c #673746",
"D  c #6B334A",
"F  c #793746",
"G  c #75324A",
"H  c #663A54",
"J  c #773756",
"K  c #5A3962",
"L  c #574345",
"P  c #52464F",
"I  c #664747",
"U  c #774545",
"Y  c #775648",
"T  c #764759",
"R  c #6D5454",
"E  c #76664C",
"W  c #7B6457",
"Q  c #796962",
"!  c #933219",
"~  c #8D162C",
"^  c #85193A",
"/  c #981A37",
"(  c #AF1433",
")  c #A7173A",
"_  c #912C2C",
"`  c #87263A",
"'  c #832B3C",
"]  c #98273A",
"[  c #853639",
"{  c #94353B",
"}  c #A5283C",
"|  c #AD3137",
" . c #CD1A35",
".. c #9A5725",
"X. c #914531",
"o. c #AE4E2A",
"O. c #CA5D36",
"+. c #871D41",
"@. c #951D43",
"#. c #AA1C42",
"$. c #B61C45",
"%. c #B11E50",
"&. c #882746",
"*. c #8A2C44",
"=. c #972846",
"-. c #9C2B4B",
";. c #883648",
":. c #973649",
">. c #8A2C52",
",. c #9A2C55",
"<. c #883A55",
"1. c #983855",
"2. c #A72647",
"3. c #A42B4C",
"4. c #AC2C4B",
"5. c #B8274A",
"6. c #B42C4D",
"7. c #A5374A",
"8. c #B6374C",
"9. c #AD2D52",
"0. c #A52C58",
"q. c #B92C53",
"w. c #A53454",
"e. c #AB3353",
"r. c #A83959",
"t. c #B33355",
"y. c #BC345B",
"u. c #B73858",
"i. c #933A64",
"p. c #AF3866",
"a. c #B73962",
"s. c #D1174A",
"d. c #E41C55",
"f. c #C7284A",
"g. c #D72444",
"h. c #C5364B",
"j. c #D23448",
"k. c #C82A56",
"l. c #D52856",
"z. c #C73659",
"x. c #D8365A",
"c. c #F0314F",
"v. c #E52A5C",
"b. c #E8395B",
"n. c #F63B5A",
"m. c #C73663",
"M. c #D83965",
"N. c #D6306F",
"B. c #E73A66",
"V. c #F63B68",
"C. c #86454A",
"Z. c #974749",
"A. c #84594D",
"S. c #8A4454",
"D. c #994458",
"F. c #855E52",
"G. c #975858",
"H. c #A6454B",
"J. c #A74559",
"K. c #B74D51",
"L. c #B74258",
"P. c #A8575A",
"I. c #896B50",
"U. c #8A6759",
"Y. c #95685A",
"T. c #99745C",
"R. c #A6745E",
"E. c #8B4B62",
"W. c #9D4362",
"Q. c #A84663",
"!. c #B94464",
"~. c #A85867",
"^. c #966B63",
"/. c #8C7168",
"(. c #9B7868",
"). c #AD6F6E",
"_. c #A47A6A",
"`. c #A97874",
"'. c #C6465C",
"]. c #D64657",
"[. c #EA435A",
"{. c #F7425A",
"}. c #D47851",
"|. c #C44865",
" X c #D84466",
".X c #CE5567",
"XX c #E74668",
"oX c #FB4665",
"OX c #FE5669",
"+X c #E85070",
"@X c #D97075",
"#X c #BEA038",
"$X c #D09E3C",
"%X c #DFC92E",
"&X c #EDC536",
"*X c #8C8358",
"=X c #9D8674",
"-X c #A9866B",
";X c #B7856C",
":X c #A98676",
">X c #B58C73",
",X c #B98A77",
"<X c #AD9474",
"1X c #B89677",
"2X c #BD947B",
"3X c #DAA75C",
"4X c #ECB056",
"5X c #C48877",
"6X c #C79071",
"7X c #C6967B",
"8X c #C7AA78",
"9X c #F2B16F",
"0X c #BFC447",
"qX c #DADD5F",
"wX c #F9CB53",
"eX c #F8CB70",
"rX c #BC7B83",
"tX c #B68F88",
"yX c #BA9887",
"uX c #BBA889",
"iX c #CD8985",
"pX c #C69A87",
"aX c #D49B88",
"sX c #C99A92",
"dX c #D59B96",
"fX c #E69B96",
"gX c #C6A48A",
"hX c #CCA38A",
"jX c #D6A589",
"kX c #CAA895",
"lX c #D6A796",
"zX c #DCAB94",
"xX c #D3AD9B",
"cX c #CBB29A",
"vX c #D9B29C",
"bX c #E5A28B",
"nX c #E5A699",
"mX c #E3B49B",
"MX c #CDADA0",
"NX c #D9ABA1",
"BX c #D9B6A6",
"VX c #E6A9A4",
"CX c #E4B8A6",
"ZX c #E4BCAB",
"AX c #EFB8B1",
"SX c #D6C996",
"DX c #F2D290",
"FX c #D7C7A7",
"GX c #EAC2AC",
"HX c #EAC6B5",
"JX c #F5CBB7",
"KX c #F6D0B2",
"LX c #F4E7B7",
"PX c #F4D2C1",
"IX c #F5EBCE",
"UX c #E0DAE0",
/* pixels */
"Z Z q 9 u u i 9 w +.&.+.,.+.q 8 8 8 8 6 ' 8.[.B.f./ q r 6 9 +.#. .d.{.[.].| ~ ~ @.=.h q 0 q A A D 9 0 +.G 9 6 6 0 l.s.s.s.e.h r ",
"A A q 9 - 1 i Z w +.+.+.@.+.q 9 8 8 8 7 ' '.n.oXf./ f r 6 7 +.(  .c.OX{.[.f.~ ~ @.&.A w w w A G C 9 0 +.&.9 > 7 ^ l.d.s.s.-.0 7 ",
"A Z q 9 - - i G A @.+.+.@.+.w C N N e 7 _ ].oXV.g.) h i 6 q +.)  .c.OXOXn.f.~ / 6.#.&.w w w A G 9 8 0 w G u > 6 ' z.d.s.$.] 0 3 ",
"q h Z i 6 - i A +.>.+.w @.=.A C D D q 0 ~ z.oXoXl.} ' g 7 q +.5.g.{.OXOX{.s.( / q.2.&.+.w w w Z 8 - 9 A C u > 6 A t.k.$.$./ s s ",
"9 Z A N 8 - i A +.=.^ ^ @.&.A A J J q 0 / j.n.V.v.5.' g r q &.) g.{.OXOXoXg.( ( k.%.=.&.+.w q f 8 1 9 A K 8 > > Z 3.%.$.) 2.` j ",
"q Z A C - - i G &.@.^ ^ @.=.A Z <.;.w 0 / j.n.oXc.} ' g r 7 j ] j.{.OXOXn.g.( ( k.$.@.&.+.w q N m 1 8 N M 8 = 1 h -.%.$.) 2.` [ ",
"C Z J N - - i >.=.=.+.^ @.=.' h G >.w 0 ~ f.b.{.B.6.' g i f Z { j.{.OXOX{.g.( ( f.#.=.>.>.A f N 1 1 8 N M 8 = 8 C &.2.$.) } ] ] ",
"9 Z J C u 8 q A =.,./ ^ 2.2.j h A A j ~ ~ | [.+XXX7.j g a a U ;.O.].@XOXOXf.( 5.5.) ` >.>.C i N = = 8 M 9 8 8 8 h ` 2.#.) ) -.] ",
"Z C C D u 6 i &.,.3.=.4.2./ *.h h G h 0 ~ 7..X+X'.1.Z k L L I U { '.}..X+Xh.} ] 6.] w F J C i u = = 8 9 C C C q q >.2.) #.5.2./ ",
"D C G D u - f A ,.#.-.t.6./ *.g f D C s ' H.!..X~.S.k u p p V c [ { K.K.'.8.{ { 7.] q i f u 1 1 1 N N C Z A >.+.' =.=.#.) $.2./ ",
"D C Z D u > f &.-.4.3.y.q.2.:.j i S S k l Z.Z.D.;.k u p t 2 2 y d l v Z.Z.Z.;.C.D.;.f e N N u = 8 C C C +.,.0.-.=.=.@.) #.5.2.#.",
"C C C D u 6 f &.w.9.2.y.6.} :.l N S S k v U U d r u p B 2 , , , a a a c F v U U S.U k a I V B - 8 C G A +.t.q.%.3.=.=.2.2.2.2.=.",
"D N C C u e h >.t.6.2.6.5.} 7.;.S V S S I I y > 2 p p P 2 < : > : > , p a a z L U S V L L R P a r F F j / k.x.k.2.=.=.2.6.4.=.] ",
"D N C D u u Z :.e.2./ 5.5.2.J.C.H V L L L z t : < < < < < : : < @ ; ; < t u p z I S z L V V P T Z ;.;.` ) l.v.k.5.=.] *.3.e.=.w ",
"C N C D u i G 1.3.#./ 6.5.| H.;.V V V a p p , ; ; ; ; ; = @ : < ; ; ; < 1 < < 2 p p p L B u L R C.C.l ` $.l.v.l.#.3.*.] -.7.;.w ",
"M N C H u i G 1.9.4.} z.z.4.:.k S P p p , : ; $ ; ; < < : : @ @ ; ; ; ; @ @ : < # > , p e - > S C.[ j ` ) g.d.s.$.3.*.^ *.w.;.w ",
"m m H J B u J 1.y.5.=.4.].|.X.a L B , : : : : : : : $ o ; : : : ; o o o o o o o o & < , p u a I ;.:.l ' 3.k.d.s.$.y.^ w w.r.&.j ",
"m 1 M H N N F <.q.5.=.8. X8.d t z z , : $ & % $ o o o @ @ @ : : = = = o @ @ @ @ X $ < , 2 t t k C.:.' ' 7.k.g.d.f.y.^ w ,.w.&.h ",
"1 = M H S V D ;.t.4.=.L.L.[ r z 2 , : & % $ o X . X X O o @ @ & & & @ + . o O @ o o , , , > t a S.Z.;.{ 4.k.s.l.5.t.^ 0 &.=.+.&.",
"1 = M V H S i h e.6.:.Z.:.l 4 , , : & % O X X O O O @ @ @ # * * t e 6 # + + @ * & & , 2 t t x I C.D.D.*.4.q.s.s.5.9.` q A >.=.-.",
"9 u p P D g r f ,.t.1.;.U c , & * @ O O O % 4 t I I n x x x c v R Y Y x 5 # * * , % , z p z x I F Z.:.-.6.5.s.k.q.3.' f g ;.-.t.",
"Z Z B L J g 9 f *.w.1.;.T L *   % . . + , x W =X:X:X=X(.T.T.(.(.(.(.(.^.A.c 4 # % X % 2 , , a a s F { 2.f.k.k.k.z.3.;.s i j 3.k.",
"1.<.V V <.;.i g =.r.1.;.I p o   . . % y W =XyXcXgXpXyX2X7X2X6X7X,XpXpX2X>X(.b x z X X * @ * p u r l =.2.k.k.k.q.y.3.;.g y j 6.l.",
"u.1.a a D.1.g Z D.r.-.;.a : . O . + x /.tXyXpXkXlXhXpX7XaXaX7X7XjXhXhXzXzXjX>X*Xn % X % O * x k s l =.4.z.l.q.q.t.-.;.g r s q.x.",
"9.r.S V Q.Q.G D 1.u.=.1.I p @   + 5 (.gXgXgXxXvXlXzXjXjXjX7XbXjXjXzXmXnXmXzXhXpX<XQ % O O O V Y l :.:.4.k.k.5.9.9.3.:.l r j f.v.",
"9.r.S S !.!.F G ;.r.#.r.S a u @ 4 Y tXkXyXhXxXxXmXvXzXjXaXaXbXzXlXzXzXzXzXmXzXcX1X=Xz % + * a U Z.7.:.2.k.k.q.9.4.3.:.;.s ' f.c.",
"e.r.F ;.m.a.D k ;.p.9.y.Z a e # 4 /.cXcXxXBXZXBXKXGXAXmXzXjXjXjXmXCXCXmXAXGXmXvXuXkXE # # 3 a F !.L.-.] 5.q.9.9.3.2.3.-.l :.x.c.",
"Q.1.F <.!.u.f a A r.k.m.&.f e * t -XkXkXcXBXBXZXBXCXmXmXvXzXzXvXxXCXZXJXKXGXSXvXkXFXU.4 4 r r ;..X'.:.] q.%.9.0.3.2.q.8.:.8.x.c.",
"Q.<.J D.m.p.i u f w.N.+X0.;.e e y -XuXcXBXFXHXJXGXBXxXkXhXlXcXxXkXkXkXlXzXvXCXGXcXBX(.e e r i 1.+X X:.' 9.q.4.#.3.6.k.z.8.L.b.n.",
"E.J Z W.|.r.V p i w.B.+Xq.1.3 # 5 /.cXBXMXuX<X:X-X_.:X1XgXgXyX:X/./.Y Y b I.-XyXBXMX=Xy 3 f f J.+Xx.:.l t.k.2.@.9.5.l.x.h.h.n.n.",
"T i Z W.a.1.L z k 1.XXB.k.w.3 O 5 (.BXkX(.Y c * # 5 c U.tXuXtXtXR a t 4 5 y b F.yXcXyXk 3 g F r.V.x.[ F r.a.#.@.9.q.v.v.k.j.n.{.",
"T u i 1.p.1.S B k -.M.B.5.L.r * t -XcXyXY U.-XU.I.Y Y U.:XyXyXtX/.W R U._.:X=X-X:XkXkXv 3 g <.J.B.x.*.[ u.z.3.@.9.k.v.v.j.j.[.oX",
"R i i f <.D.k k j 7.M.B.6.7.G.3 > tXZXtX(.tX_.^.F.A.A.F.pXlXvXsXU.U U.U.U.=X=X=XtXMXHXU 3 P.[ H.x.y.' ` q.z.1.*.5.B.l.k.x.l.x.+X",
"T i i S ;.D.F F ` 6.x.B.8.K.).U y tXBXtX/.^.Y k 5 d d A.2XZXCXvX(.v k e * c E /.uXMXZX^.k @XH.7.u.t.*.{ k.z.:.[ q.XXh.5.l.j.].+X",
"T N u a <.D.;.;.:.z.B.XX8.~.iX~.c sXMXyX`.U.W d r X.b _.yXJXHXAX,XG.Y c x W =XyXcXMXZX,XA.VX).:.:.r.<.-.l.k.:.*.q. X2.2.q.f.x. X",
"T N u V <.W.1.1.L.x.XXx.} P.fXrXY MXBXBXuX:X:XW A.=X_.yXxXPXJXAXsXtX`._.(.tXcXFXZXZXZXlXY.AXiX' ' :.;.:.k.l.=.` 4.'.{ ` 6.5.k.x.",
"T N 2 M <.W.1.u.z.x.M.z.{ P.fXfXF.MXBXHXBXuXMXrX:XyXkXpXZXJXPXPXZXVXsXyXyXgXBXHXJXHXZXBXR.CXsXl j ;.F ;.z.l.=.` 3.u.' ' 7.4.5.f.",
"P N B V J W.w.y.z.M.x.'.{ P.fXVX).MXBXHXPXFXHXNXxXxXZXMXJXHXPXPXPXPXCXNXZXCXKXJXKXGXZXCX:XkXsXU h A C F a.m.*.w 3.u.*.*.w.3.6.f.",
"H u m P T Q.r.y.M.x.].u.[ G.fXiXtXMXBXPXPXPXPXHXHXGXBXGXHXZXBXAXBXHXvXZXKXAXJXKXKXAXZXCXsXtXtXS h j S D r.Q.*.w 2.a.:.>.1.-.3.9.",
"H 1 m P T W.0.y.z.l.'.L.[ S.iXrXdXBXZXZXJXPXFXHXBXNXuXBXNXxXtXlXNXAXpXlXCXCXKXJXKXGXGXCXNX:XtXk h Z a D W.p.<.A -.a.:.*.1.>.-.3.",
"M 1 m P H <.0.z.m.6.|.7.C.c VXVXsXdXAXZXHXPXMXBXuXyXkX`.U._.tXF.F.`.sXpXhXmXCXKXKXKXnXmXBXBXsXC h J L S <.W.,.>.w.t.1.>.;.;.r.r.",
"P 1 B P D >.,.u.z.q.|.:.v d dXAXNXNXNXNXAXPXBXMXgX1XyX:XA.Y (.`.(.sXhX-X;XhXmXzXmXmXlXCXVXBXtXN C G H S <.r.w.0.r.p.D.<.F ;.w.y.",
"H u P V A &.=.9.t.4.!.r.F d dXAXAXVXVXNXNXCXsXyX>XyXBXxX^.d d r (.BXPXlX2X7XjXmXmXmXzXVXVXAXiXl k I V N ,.a.p.0.a.J.S.U S ;.4.k.",
"I M R J &.=.=.0.w.3.L.J.;.r ).VXVXdXNXNXlXhXyX1XgXgXlX;Xl r 7 3 U `.sXlX7X-X<XhXjXvXlXiXrXrX~.f i D a i ,.y.k.q.r.<.G V a G q.l.",
"S N T S.,.0.0.w.r.=.a.r.;.7 U ~.G.P.dXVXaXpX>X>XR.T.I.A.A.G.`.rXG.Y.A.Y.-X>X1XhXpXmXaX~.Z.D.&.q i a a i ,.y.k.m.r.*.f i i F 6.v.",
"g C D.Q.q.m.a.r.,.=.a.u.>.h s ;.l Z.iXVXsX7X>X>XA.b v A.G.U S D ^.G.C.c A.-X1X1XhXmXfXG.;.1.>.&.f S N f :.y.k.k.y.=.g k k F q.B.",
"F Z D.p.m.M.a.r.:.-.a.u.r.<.A 1.;.[ 5XVXaXpX>X-XY.I.A.(.`.`.).rX).rXtX:X-X<X8XgXhXlX5Xl ' J.-.+.;.F V a ;.t.z.k.z.w.1.C.U F 6.M.",
"1.*.Q.a.z.M.y.e.-.4.m.k.t.r.j <.Z.[ ).dXaXpX2X;X_.7XpX`.`.`.).).`.tXtXkXgX1X:XuXxXhX).0 ` !.9.2.0.1.S i F r.z.k.k.8.r.D.C.Z 2.m.",
"a.!.r.e.z.'.h.h.} z.x.v.M.9.&.;.*.:.~.fXsXpX1X-X1X1X7X-XU.U v v Y.>XuXgXgX1X<XuXxXdXl j =.9.q.l.N.p.>.D F Z.L.f.f.h.8.r.<.J ,.p.",
"y.u.7.7.'.'.8.h.h. XB.b.B.h.*.S.:.:.P.dXiX7X1X<X8X1X8X7X:X`._._.-X1XhXjXjXgX1X1XsXsXj j :.8.f.f.N.N.>.Z S S.H.h.j.f.u.e.:.>.,.p.",
"8.K.7.8.'.'.h.q.'.XXB.B.B.8.*.S.:.:.J.fXpX,X2X1X1X8X7XgXyXyXtXkXpXaXaXaXjX8X2XpXpXsXl j :.4.6.5.x.z.>.g S U 1.9.k.k.r.1.[ ' ,.r.",
"o.7.| 7..X'.8.} z.XXB.v.B.5.] 1.7.:.J.fXaX,X1X1X8XgXgXgXkXyXtXtXdXlXbXaX7X7X6X7XiXsXs j :.8.6.5.j.8.:.g a D >.0.y.q.w.;.[ l { 7.",
"1.r.9.y.|.|.| } h.b.c.v.x.5.] { 7.{ H.VXaX>X>X1X2X2XpXkXyXtXtXtXsXsXsXpX3X6X;X>XpXiXj w =.q.q.f.x.h.X.k i V >.>.0.0.:.F j s X.X.",
"<.i.p.a.'.r.] } h.b.n.b.b.h.} 8.:.] P.VXnX,X>X-X-X-X-X:XtX=X(.=X(.rX_.^.R.;X;X6XaXdXs 0 =.q.k.f.x.z.1.g a C G >.,.,.>.j s l { Z.",
"i.W.p.q.t.| _ _ j.b.n.n.XXk.2.t.7.{ H.nXlX7X1X-X-XI.b Y R R L L I R x c I.T.;XaXbXbX_ ~ 5.k.l.d.M.m.1.G g S F ;.1.1.;.C g S U <.",
"J i.a.q.4.] _ { j.{.V.B.XXz.%.q.{ _ Z.fXlXaX7X:X(.Y 5 * # * @ o $ : * x I.<X7X9XnXfX_ / k.l.l.v.B.N.r.>.Z G ;.<.1.<.J S N H H J ",
"s D.'.6.2.} { ] z.XXoXV.m.z.a.y.{ [ X.nXmXhX7X>X-XT.Y y e @ @ : z P E /.=X1X8X8XnX6X| { 5.j.l.l.B.N.u.-.&.;.:.<.<.<.J H M M M K ",
"l Z.u.q.4.-.-.1.+Xx.f.j.z.h.h.K.{ Z.).jXpX7X2XyX5X_.(.Y.W E R R R Q /.-X<X1XpX9XAXnXP.K._ 4.5.5.M.m.4./ ` >.<.D.W.<.J H M 8 M K ",
"s ;.Q.a.a.0.,.p.!.z.h.].o.O.O.3XbXbXjXhXhXhX2X>X>X_._.(.U.U.W W W /.`.;X6X7XaXjXjXnX2XY.@X5X.X8.| | ! / :.J.1.A A J J M M M m 1 ",
"F D.r.p.0.@.,.Q.~.H.K.}.9X9XwX9XDXmXT.gXhXjX8X>X,X;X`._.^.W R Y U._.`.5X7X7XjXzXvXkXgX/.T.JXKX9X}.O.o.! _ X.{ j <.i.J M = m m m ",
"C S.W.Q.J.1.Z.P.6X8XbXDX9XeXwXeXDXFXb gXuX1X1X7X7X5X,X;X_.(.U.U.).`.5X6X6X7XaXaXMXcXcX<X5 SXIXDXeXeX4X$Xo...X._ l l v k M B B 2 ",
"F U C.Z.K.}.9XDXDXeXeX9X9XeXDXqXLXFXE gXcX8X<X>X,X;X5X`.-XR.T.T.;X;X5X6X7XaXaXjXuXFXuXQ *XSXLXDXeXeXeX9X4X4X$X..! X.X.c i u 1 < ",
"d I.;X9XeXeXwX&X0X0X0X9XmXLXUXIXFXSX*Xn -XgX7X>X6X6X5X;X_.R.T.T.T.-X;X1X2X2XpXgXcXcX*Xz SXSXSXDXeXqX0X&XwXwXwX&X$X#X..b y B B K ",
"bXKXDXeXwXwX&X%XqXqXqXDXIXUXUXUXIXLXSXz n <X<X2X;X6X).5X;X-XT.T.-X<X>X1X1X2XyXyXuX*Xz SXSXLXSXqXqXqXqXwX&X&X&X&XwX4X9XjXyXQ K m "
};
